<svg width="7" height="12" viewBox="0 0 7 12" fill="none" xmlns="http://www.w3.org/2000/svg">
<path d="M2.87047 0.682497L2.87047 9.67098L1.06644 7.70539C0.822148 7.43922 0.427517 7.43922 0.183222 7.70539C-0.0610738 7.97156 -0.0610738 8.40154 0.183222 8.66771L3.05839 11.8004C3.30269 12.0665 3.69732 12.0665 3.94161 11.8004L6.81678 8.66771C7.06107 8.40154 7.06107 7.97156 6.81678 7.70539C6.57248 7.43922 6.17785 7.43922 5.93356 7.70539L4.12327 9.67098L4.12327 0.682497C4.12327 0.307123 3.84139 5.22245e-08 3.49687 4.75407e-08C3.15235 4.28568e-08 2.87047 0.307123 2.87047 0.682497Z" fill="#0D0D0D"/>
</svg>
