<svg width="44" height="20" viewBox="0 0 44 20" fill="none" xmlns="http://www.w3.org/2000/svg">
<path d="M15.8979 17.067C13.6774 15.4955 9.18012 10.5486 13.6668 0.018713C13.7541 -0.185825 6.86201 1.37507 0.333008 0.398492C0.333008 0.398492 1.34815 19.6628 22.5881 19.6628C23.0732 19.6683 23.5552 19.5875 24.0104 19.4243C21.9149 19.3706 17.6075 18.2755 15.8979 17.067Z" fill="url(#paint0_linear)"/>
<path d="M20.02 17.4907C24.4976 17.4907 27.7349 14.1523 27.7349 9.76028C27.7349 5.3683 24.4973 2.02988 20.02 2.02988C17.014 2.02988 14.342 3.35591 12.9099 5.77018C13.8684 3.69764 15.5301 2.01544 17.6118 1.01049C19.6935 0.00553798 22.0662 -0.259913 24.3251 0.25941C26.584 0.778733 28.5893 2.05066 29.999 3.85826C31.4086 5.66585 32.1353 7.89715 32.055 10.1716C31.9748 12.446 31.0926 14.6227 29.5589 16.3304C28.0252 18.038 25.9351 19.1709 23.6449 19.5358C21.3548 19.9007 19.0066 19.475 17.0007 18.3313C14.9948 17.1876 13.4556 15.3967 12.6455 13.2641C13.9935 15.941 16.8169 17.4907 20.02 17.4907Z" fill="url(#paint1_linear)"/>
<path d="M24.2115 17.4906C19.7338 17.4906 16.6628 14.1521 16.6628 9.75995C16.6628 5.36785 19.7338 2.02935 24.2115 2.02935C27.2175 2.02935 29.8896 3.35541 31.3217 5.76974C30.3632 3.69726 28.7013 2.01514 26.6196 1.01029C24.5379 0.00543824 22.1653 -0.25991 19.9064 0.259505C17.6475 0.778919 15.6422 2.05092 14.2327 3.85857C12.8231 5.66621 12.0966 7.89752 12.1769 10.1719C12.2572 12.4464 13.1395 14.623 14.6732 16.3306C16.2069 18.0382 18.2971 19.1711 20.5872 19.5359C22.8773 19.9007 25.2256 19.4749 27.2314 18.3312C29.2372 17.1874 30.7764 15.3965 31.5864 13.2639C30.2395 15.9409 27.4149 17.4906 24.2115 17.4906Z" fill="url(#paint2_linear)"/>
<path d="M25.6723 10.4851C25.524 10.2429 25.3067 10.0433 25.0444 9.90835C24.7941 9.78627 24.5278 9.6952 24.252 9.63743C24.535 9.55629 24.7987 9.42572 25.029 9.25272C25.2183 9.10464 25.3714 8.92076 25.4784 8.71332C25.6032 8.4748 25.6564 8.20935 25.6324 7.94501C25.6084 7.68068 25.5081 7.42728 25.3421 7.21161C25.1287 6.93958 24.8344 6.73155 24.4955 6.61314C24.3353 6.55559 24.1695 6.51267 24.0004 6.485V5.27588H22.7543V6.40399H21.9512V5.27588H20.7042V6.40399H18.8008V7.35221H19.0882C19.2221 7.34311 19.3566 7.36009 19.4831 7.40206C19.5462 7.4301 19.5974 7.47691 19.6287 7.53509C19.6667 7.66135 19.681 7.79279 19.6709 7.92359V11.7463C19.6808 11.8755 19.6665 12.0054 19.6287 12.1302C19.5981 12.1894 19.5468 12.2372 19.4831 12.2656C19.3558 12.3041 19.2218 12.3196 19.0882 12.3111H18.8008V13.2594H20.7042V14.388H21.9512V13.2575H22.752V14.3861H23.9984V13.1616C24.1868 13.1302 24.3716 13.0818 24.55 13.0172C24.949 12.8793 25.2963 12.6363 25.5494 12.3179C25.7809 12.0267 25.9052 11.6739 25.9038 11.3117C25.9084 11.0218 25.8284 10.7361 25.6723 10.4851ZM21.4948 7.50854H22.3021C22.6326 7.49468 22.9636 7.52248 23.2861 7.59117C23.4543 7.63523 23.6017 7.73065 23.7046 7.86209C23.8042 7.99855 23.8552 8.16073 23.8502 8.32563C23.8528 8.48953 23.7995 8.64998 23.6982 8.78403C23.583 8.9253 23.4228 9.02905 23.2404 9.08042C22.9355 9.15921 22.6193 9.19294 22.3032 9.18039H21.496V7.50799L21.4948 7.50854ZM23.7762 11.7471C23.6452 11.9088 23.4612 12.0265 23.252 12.0825C22.9983 12.1419 22.7372 12.1692 22.4756 12.1638H21.9366C21.8258 12.1708 21.7144 12.1617 21.6066 12.1367C21.5858 12.1276 21.5673 12.1145 21.5522 12.0983C21.5372 12.0821 21.526 12.0632 21.5193 12.0427C21.4985 11.92 21.4902 11.7959 21.4945 11.6718V10.1871H22.4477C22.7633 10.1736 23.0792 10.2103 23.3816 10.2955C23.5668 10.3539 23.7269 10.4661 23.8385 10.6155C23.946 10.7681 24.0003 10.9478 23.994 11.1302C24.0004 11.3531 23.9234 11.5711 23.7762 11.7471Z" fill="#6AB452"/>
<path d="M28.3352 17.067C30.5557 15.4955 35.053 10.5486 30.5663 0.018713C30.4793 -0.185825 37.3725 1.37507 43.9001 0.398492C43.9001 0.398492 42.885 19.6628 21.645 19.6628C21.1599 19.6683 20.6779 19.5875 20.2227 19.4243C22.3182 19.3706 26.6256 18.2755 28.3352 17.067Z" fill="url(#paint3_linear)"/>
<path d="M36.8255 13.4088C36.4006 13.8227 40.8659 7.47348 39.6178 2.01685C39.5975 1.92833 40.0517 2.05034 41.0485 2.01685C41.5271 2.00925 42.0048 1.97623 42.4795 1.91797C42.0259 4.94704 40.5602 9.7716 36.8255 13.4088Z" fill="url(#paint4_linear)"/>
<path d="M3.32046 3.08209C3.32046 3.08209 9.18633 2.40545 11.3934 1.43921C9.7976 1.71701 8.18468 1.89692 6.5646 1.97782C4.96074 2.0565 3.35292 2.01977 1.75488 1.86793C3.59595 12.4869 10.8262 15.8441 13.1201 16.786C10.3757 15.6297 5.22642 12.2847 3.32046 3.08209Z" fill="url(#paint5_linear)"/>
<path d="M9.75294 7.85652C10.0343 9.0107 9.11928 10.1864 7.70881 10.4825C6.29834 10.7786 4.92688 10.0827 4.64555 8.92851C4.36422 7.77433 5.27921 6.59865 6.68939 6.30255C8.09957 6.00646 9.47161 6.70234 9.75294 7.85652Z" fill="url(#paint6_linear)"/>
<defs>
<linearGradient id="paint0_linear" x1="12.1717" y1="0" x2="12.1717" y2="19.663" gradientUnits="userSpaceOnUse">
<stop stop-color="#4DA142"/>
<stop offset="1" stop-color="#DAE489"/>
</linearGradient>
<linearGradient id="paint1_linear" x1="22.3533" y1="0" x2="22.3533" y2="19.663" gradientUnits="userSpaceOnUse">
<stop stop-color="#4DA142"/>
<stop offset="1" stop-color="#DAE489"/>
</linearGradient>
<linearGradient id="paint2_linear" x1="21.8786" y1="0" x2="21.8786" y2="19.663" gradientUnits="userSpaceOnUse">
<stop stop-color="#579F19"/>
<stop offset="1" stop-color="#6FAD67"/>
</linearGradient>
<linearGradient id="paint3_linear" x1="32.0614" y1="0" x2="32.0614" y2="19.663" gradientUnits="userSpaceOnUse">
<stop stop-color="#579F19"/>
<stop offset="1" stop-color="#6FAD67"/>
</linearGradient>
<linearGradient id="paint4_linear" x1="39.6382" y1="1.91797" x2="39.6382" y2="13.428" gradientUnits="userSpaceOnUse">
<stop stop-color="#F8D38A"/>
<stop offset="1" stop-color="#DAE489"/>
</linearGradient>
<linearGradient id="paint5_linear" x1="7.43747" y1="1.43921" x2="7.43747" y2="16.786" gradientUnits="userSpaceOnUse">
<stop stop-color="#F8D38A"/>
<stop offset="1" stop-color="#DAE489"/>
</linearGradient>
<linearGradient id="paint6_linear" x1="7.19924" y1="6.23437" x2="7.19924" y2="10.5507" gradientUnits="userSpaceOnUse">
<stop stop-color="#F8D38A"/>
<stop offset="1" stop-color="#DAE489"/>
</linearGradient>
</defs>
</svg>
