<svg width="48" height="16" viewBox="0 0 48 16" fill="none" xmlns="http://www.w3.org/2000/svg">
<path d="M3.78714 0H1.91895V1.92889H3.78714V0Z" fill="#3D9EE0"/>
<path d="M7.06351 0H5.19531V1.92889H7.06351V0Z" fill="#3D9EE0"/>
<path d="M10.9778 8.46148C11.3744 9.01444 11.5664 9.69598 11.5664 10.4933C11.5664 11.6377 11.1569 12.5122 10.3252 13.1294C9.49345 13.7467 8.27785 14.0553 6.69116 14.0553H0.382812V1.02881H6.34568C7.82999 1.02881 8.98162 1.33743 9.77496 1.94182C10.5683 2.54621 10.965 3.3692 10.965 4.4108C10.965 5.04091 10.8242 5.60672 10.5427 6.10823C10.2612 6.60975 9.86453 6.99552 9.3527 7.27843C10.0437 7.52276 10.5811 7.90854 10.9778 8.46148ZM3.1851 3.3049V6.37828H5.98739C6.69116 6.37828 7.21579 6.24968 7.57408 5.9925C7.93236 5.73531 8.1115 5.34953 8.1115 4.83516C8.1115 4.32079 7.93236 3.94787 7.57408 3.69068C7.21579 3.4335 6.69116 3.3049 5.98739 3.3049H3.1851ZM8.16269 11.3934C8.53377 11.1362 8.7257 10.7247 8.7257 10.1846C8.7257 9.10445 7.97075 8.56436 6.47363 8.56436H3.1851V11.7792H6.48643C7.22859 11.7792 7.79161 11.6506 8.16269 11.3934Z" fill="#3D9EE0"/>
<path d="M16.0697 3.48494H12.167V1.02881H22.8003V3.48494H18.8976V14.0553H16.0697V3.48494Z" fill="#151D26"/>
<path d="M26.6142 13.4123C25.6033 12.8337 24.8228 12.0364 24.247 11.0076C23.6712 9.9789 23.3896 8.83443 23.3896 7.53564C23.3896 6.24971 23.6712 5.09237 24.247 4.06363C24.8228 3.03488 25.6161 2.2376 26.6142 1.65894C27.6123 1.08027 28.7511 0.797363 30.0051 0.797363C31.0672 0.797363 32.014 0.990253 32.8714 1.38889C33.7287 1.78753 34.4453 2.35334 35.0211 3.09918L33.2041 4.88662C32.3723 3.87074 31.3615 3.35636 30.1331 3.35636C29.3781 3.35636 28.6999 3.53639 28.1113 3.8836C27.5227 4.2308 27.0621 4.73231 26.7294 5.36242C26.3967 5.99252 26.2303 6.71264 26.2303 7.52278C26.2303 8.33291 26.3967 9.05304 26.7294 9.68314C27.0621 10.3132 27.5227 10.8019 28.1113 11.162C28.6999 11.5092 29.3781 11.6892 30.1331 11.6892C31.3487 11.6892 32.3723 11.1748 33.2041 10.1461L35.0211 11.9335C34.4453 12.6922 33.7159 13.2709 32.8586 13.6695C32.0013 14.0682 31.0416 14.2611 29.9795 14.2611C28.7383 14.2739 27.6123 13.991 26.6142 13.4123Z" fill="#151D26"/>
<path d="M42.2639 11.7148C42.0464 11.7148 41.8417 11.7019 41.6497 11.6634L42.8525 12.9364L41.6113 14.2609C41.8161 14.2738 42.0336 14.2867 42.2511 14.2867C43.9914 14.2867 45.3477 13.7723 46.3202 12.7435C47.2927 11.7148 47.7789 10.2488 47.7789 8.33279L46.397 7.1626L44.9894 8.21706C44.9894 9.42584 44.7591 10.3003 44.2985 10.8661C43.8122 11.4319 43.1468 11.7148 42.2639 11.7148Z" fill="#151D26"/>
<path d="M39.5388 8.21716V1.02881H39.5004C39.0654 1.36315 38.6175 1.68463 38.1825 2.01897C37.709 1.68463 37.2228 1.36315 36.7493 1.02881H36.7109V8.32003C36.7109 10.2232 37.1972 11.702 38.1697 12.7308C38.7711 13.3609 39.5132 13.7981 40.3961 14.0424C40.6009 13.2966 40.8568 12.3579 41.0999 11.4963C40.0634 11.0719 39.5388 9.97888 39.5388 8.21716Z" fill="#3D9EE0"/>
<path d="M42.8396 12.9237L41.6368 11.6506C41.4449 11.6121 41.2657 11.5606 41.0866 11.4963C40.8435 12.3579 40.5875 13.2966 40.3828 14.0425C40.7539 14.1454 41.1506 14.2225 41.5856 14.2482L42.8396 12.9237Z" fill="#3D9EE0"/>
<path d="M3.78714 13.0908H1.91895V15.0197H3.78714V13.0908Z" fill="#3D9EE0"/>
<path d="M7.06351 13.0908H5.19531V15.0197H7.06351V13.0908Z" fill="#3D9EE0"/>
<path d="M46.3831 7.14984L47.7651 8.32003C47.7651 6.31398 47.7651 4.29507 47.7651 2.28902C47.3044 1.86466 46.831 1.45317 46.3703 1.02881C45.9097 1.45317 45.4618 1.87752 45.0012 2.30188C44.9884 4.26935 44.9884 6.23683 44.9756 8.2043L46.3831 7.14984Z" fill="#151D26"/>
<path d="M42.2639 11.7148C42.0464 11.7148 41.8417 11.7019 41.6497 11.6634L42.8525 12.9364L41.6113 14.2609C41.8161 14.2738 42.0336 14.2867 42.2511 14.2867C43.9914 14.2867 45.3477 13.7723 46.3202 12.7435C47.2927 11.7148 47.7789 10.2488 47.7789 8.33279L46.397 7.1626L44.9894 8.21706C44.9894 9.42584 44.7591 10.3003 44.2985 10.8661C43.8122 11.4319 43.1468 11.7148 42.2639 11.7148Z" fill="#151D26"/>
<path d="M40.5881 11.2005C39.7436 10.5704 39.3469 9.41307 39.5388 8.2043V1.02881H39.5004C39.0654 1.36315 38.6175 1.68463 38.1825 2.01897C37.709 1.68463 37.2228 1.36315 36.7493 1.02881H36.7109V8.32003C36.7109 9.27162 36.8261 10.1203 37.0692 10.8533C37.1844 11.2134 37.5043 12.0107 38.1569 12.7308C38.835 13.4638 39.6668 13.8367 40.3833 14.0424C40.5881 13.2966 40.844 12.3579 41.0871 11.4963C40.9336 11.4191 40.7544 11.3291 40.5881 11.2005Z" fill="#3D9EE0"/>
<path d="M43.0324 12.988C42.6869 12.5637 42.3415 12.1264 41.996 11.7021C41.7784 11.6892 41.4457 11.6378 41.1003 11.4963C40.8571 12.3579 40.6012 13.2966 40.3965 14.0425C41.1386 14.2482 41.7656 14.2611 42.0216 14.2739C42.367 13.8496 42.6997 13.4124 43.0324 12.988Z" fill="#3D9EE0"/>
</svg>
