<svg width="23" height="23" viewBox="0 0 23 23" fill="none" xmlns="http://www.w3.org/2000/svg">
<path d="M11.4887 0.250244C5.27875 0.250244 0.25 5.29024 0.25 11.5002C0.25 17.7102 5.27875 22.7502 11.4887 22.7502C17.71 22.7502 22.75 17.7102 22.75 11.5002C22.75 5.29024 17.71 0.250244 11.4887 0.250244ZM19.285 7.00024H15.9663C15.6063 5.59399 15.0887 4.24399 14.4137 2.99524C16.4837 3.70399 18.205 5.14399 19.285 7.00024ZM11.5 2.54524C12.4338 3.89524 13.165 5.39149 13.6488 7.00024H9.35125C9.835 5.39149 10.5662 3.89524 11.5 2.54524ZM2.7925 13.7502C2.6125 13.0302 2.5 12.2765 2.5 11.5002C2.5 10.724 2.6125 9.97024 2.7925 9.25024H6.595C6.505 9.99274 6.4375 10.7352 6.4375 11.5002C6.4375 12.2652 6.505 13.0077 6.595 13.7502H2.7925ZM3.715 16.0002H7.03375C7.39375 17.4065 7.91125 18.7565 8.58625 20.0052C6.51625 19.2965 4.795 17.8677 3.715 16.0002ZM7.03375 7.00024H3.715C4.795 5.13274 6.51625 3.70399 8.58625 2.99524C7.91125 4.24399 7.39375 5.59399 7.03375 7.00024ZM11.5 20.4552C10.5662 19.1052 9.835 17.609 9.35125 16.0002H13.6488C13.165 17.609 12.4338 19.1052 11.5 20.4552ZM14.1325 13.7502H8.8675C8.76625 13.0077 8.6875 12.2652 8.6875 11.5002C8.6875 10.7352 8.76625 9.98149 8.8675 9.25024H14.1325C14.2338 9.98149 14.3125 10.7352 14.3125 11.5002C14.3125 12.2652 14.2338 13.0077 14.1325 13.7502ZM14.4137 20.0052C15.0887 18.7565 15.6063 17.4065 15.9663 16.0002H19.285C18.205 17.8565 16.4837 19.2965 14.4137 20.0052ZM16.405 13.7502C16.495 13.0077 16.5625 12.2652 16.5625 11.5002C16.5625 10.7352 16.495 9.99274 16.405 9.25024H20.2075C20.3875 9.97024 20.5 10.724 20.5 11.5002C20.5 12.2765 20.3875 13.0302 20.2075 13.7502H16.405Z" fill="#212121"/>
</svg>
