<svg width="21" height="20" viewBox="0 0 21 20" fill="none" xmlns="http://www.w3.org/2000/svg">
<path d="M16.8901 1.57247e-05H7.68164V12.29H20.1145V3.18002C20.1145 2.76157 20.031 2.34724 19.8689 1.96077C19.7067 1.5743 19.469 1.22329 19.1695 0.927873C18.8699 0.632452 18.5144 0.398423 18.1232 0.239203C17.7321 0.0799819 17.313 -0.00130014 16.8901 1.57247e-05Z" fill="#142533"/>
<path d="M4.81206 0H3.2251C2.3726 0 1.55501 0.335035 0.952204 0.9314C0.349396 1.52777 0.0107422 2.33661 0.0107422 3.18L0.0107422 4.75H4.81206V0Z" fill="#142533"/>
<path d="M0.0107422 7.59009H4.81206V12.3401H0.0107422V7.59009Z" fill="#142533"/>
<path d="M15.3545 19.8899H16.9415C17.3644 19.8899 17.7832 19.8074 18.1739 19.6469C18.5645 19.4865 18.9193 19.2513 19.2179 18.955C19.5165 18.6586 19.7531 18.3069 19.914 17.9199C20.075 17.533 20.1571 17.1184 20.1558 16.6999V15.1799H15.3545V19.8899Z" fill="#142533"/>
<path d="M7.68164 15.1799H12.483V19.9299H7.68164V15.1799Z" fill="#142533"/>
<path d="M0.0107422 15.1799V16.7499C0.0107422 17.5933 0.349396 18.4022 0.952204 18.9985C1.55501 19.5949 2.3726 19.9299 3.2251 19.9299H4.81206V15.1799H0.0107422Z" fill="#142533"/>
</svg>
