<svg width="20" height="24" viewBox="0 0 20 24" fill="none" xmlns="http://www.w3.org/2000/svg">
<path d="M6.5625 4.37512C7.77063 4.37512 8.75 3.39574 8.75 2.18762C8.75 0.979496 7.77063 0.000117779 6.5625 0.000117779C5.35438 0.000117779 4.375 0.979496 4.375 2.18762C4.375 3.39574 5.35438 4.37512 6.5625 4.37512Z" fill="#151D26"/>
<path d="M12.8125 23.1251C14.0206 23.1251 15 22.1457 15 20.9376C15 19.7295 14.0206 18.7501 12.8125 18.7501C11.6044 18.7501 10.625 19.7295 10.625 20.9376C10.625 22.1457 11.6044 23.1251 12.8125 23.1251Z" fill="#151D26"/>
<path d="M8.75001 23.1253V18.5547H6.37689C5.20224 18.5547 4.25 17.5831 4.25 16.3847C4.25 15.1862 5.20224 14.2146 6.37689 14.2146H8.75001V9.37524H6.44531C2.88566 9.37524 0 12.3195 0 15.9513V16.5492C0 20.181 2.88567 23.1253 6.44532 23.1253H8.75001Z" fill="#151D26"/>
<path d="M11.25 -1.41164e-05L11.25 4.57053L13.6231 4.57053C14.7978 4.57053 15.75 5.54209 15.75 6.74057C15.75 7.93906 14.7978 8.91062 13.6231 8.91062L11.25 8.91062L11.25 13.75L13.5547 13.75C17.1143 13.75 20 10.8058 20 7.17391L20 6.57608C20 2.9442 17.1143 -1.36037e-05 13.5547 -1.39149e-05L11.25 -1.41164e-05Z" fill="#151D26"/>
</svg>
