<svg width="50" height="50" viewBox="0 0 50 50" fill="none" xmlns="http://www.w3.org/2000/svg">
<circle cx="25" cy="25" r="25" fill="#8EB8C6"/>
<path d="M21.3337 17.0073C22.7941 17.0073 23.9779 15.8235 23.9779 14.3631C23.9779 12.9027 22.7941 11.7189 21.3337 11.7189C19.8733 11.7189 18.6895 12.9027 18.6895 14.3631C18.6895 15.8235 19.8733 17.0073 21.3337 17.0073Z" fill="white"/>
<path d="M28.6052 37.5C30.0655 37.5 31.2494 36.3161 31.2494 34.8558C31.2494 33.3954 30.0655 32.2115 28.6052 32.2115C27.1448 32.2115 25.9609 33.3954 25.9609 34.8558C25.9609 36.3161 27.1448 37.5 28.6052 37.5Z" fill="white"/>
<path d="M23.9343 37.5V32.446H21.2569C19.9317 32.446 18.8574 31.3717 18.8574 30.0465C18.8574 28.7212 19.9317 27.6469 21.2569 27.6469H23.9343V22.2957H21.6647C17.4661 22.2957 14.0625 25.6993 14.0625 29.8978C14.0625 34.0964 17.4661 37.5 21.6647 37.5H23.9343Z" fill="white"/>
<path d="M26.6223 11.7188L26.6223 16.7727L29.2997 16.7727C30.625 16.7727 31.6993 17.8471 31.6993 19.1723C31.6993 20.4975 30.625 21.5719 29.2997 21.5719L26.6223 21.5719L26.6223 26.9231L28.892 26.9231C33.0905 26.9231 36.4941 23.5195 36.4941 19.3209C36.4941 15.1224 33.0905 11.7188 28.892 11.7188L26.6223 11.7188Z" fill="white"/>
</svg>
