<svg width="26" height="30" viewBox="0 0 26 30" fill="none" xmlns="http://www.w3.org/2000/svg">
<path d="M8.33475 6.06201C10.0087 6.06201 11.3658 4.70497 11.3658 3.03098C11.3658 1.35698 10.0087 -5.67434e-05 8.33475 -5.67435e-05C6.66075 -5.67435e-05 5.30371 1.35698 5.30371 3.03098C5.30371 4.70497 6.66075 6.06201 8.33475 6.06201Z" fill="#545E66"/>
<path d="M16.6707 29.5527C18.3447 29.5527 19.7017 28.1957 19.7017 26.5217C19.7017 24.8477 18.3447 23.4907 16.6707 23.4907C14.9967 23.4907 13.6396 24.8477 13.6396 26.5217C13.6396 28.1957 14.9967 29.5527 16.6707 29.5527Z" fill="#545E66"/>
<path d="M11.3159 29.553V23.7597H8.24685C6.72775 23.7597 5.49627 22.5282 5.49627 21.0091C5.49627 19.49 6.72775 18.2585 8.24685 18.2585H11.3159V12.1245H8.71423C3.90149 12.1245 0 16.026 0 20.8387C0 25.6515 3.90149 29.553 8.71422 29.553H11.3159Z" fill="#545E66"/>
<path d="M14.397 0.000262225L14.397 5.79353L17.466 5.79353C18.9851 5.79353 20.2166 7.02501 20.2166 8.54411C20.2166 10.0632 18.9851 11.2947 17.466 11.2947L14.397 11.2947L14.397 17.4287L16.9987 17.4287C21.8114 17.4287 25.7129 13.5272 25.7129 8.71449C25.7129 3.90175 21.8114 0.000262873 16.9987 0.000262452L14.397 0.000262225Z" fill="#545E66"/>
</svg>
