<svg width="26" height="29" viewBox="0 0 26 29" fill="none" xmlns="http://www.w3.org/2000/svg">
<path d="M8.22957 5.48657C9.74462 5.48657 10.9728 4.25838 10.9728 2.74333C10.9728 1.22828 9.74462 8.58309e-05 8.22957 8.58308e-05C6.71452 8.58308e-05 5.48633 1.22828 5.48633 2.74333C5.48633 4.25838 6.71452 5.48657 8.22957 5.48657Z" fill="#9B97B1"/>
<path d="M16.0675 29C17.5825 29 18.8107 27.7718 18.8107 26.2568C18.8107 24.7417 17.5825 23.5135 16.0675 23.5135C14.5524 23.5135 13.3242 24.7417 13.3242 26.2568C13.3242 27.7718 14.5524 29 16.0675 29Z" fill="#DFC382"/>
<path d="M10.973 29.0001V23.2684H7.99695C6.52388 23.2684 5.32973 22.05 5.32973 20.547C5.32973 19.0441 6.52389 17.8257 7.99696 17.8257H10.973V11.7568H8.08277C3.61878 11.7568 0 15.449 0 20.0036V20.7533C0 25.3079 3.61878 29.0001 8.08277 29.0001H10.973Z" fill="#631964"/>
<path d="M14.1081 -7.91606e-05L14.1081 5.73163L17.0841 5.73163C18.5572 5.73163 19.7513 6.95002 19.7513 8.45297C19.7513 9.95593 18.5572 11.1743 17.0841 11.1743L14.1081 11.1743L14.1081 17.2432L16.9983 17.2432C21.4623 17.2432 25.0811 13.551 25.0811 8.9964L25.0811 8.24669C25.0811 3.69213 21.4623 -7.85177e-05 16.9983 -7.89079e-05L14.1081 -7.91606e-05Z" fill="#53A3B9"/>
</svg>
