<svg width="24" height="24" viewBox="0 0 24 24" fill="none" xmlns="http://www.w3.org/2000/svg">
<path d="M22.1054 16.613L20.6966 21.3252L17.9312 20.5769L22.1054 16.613Z" fill="#A4A4A4"/>
<path fill-rule="evenodd" clip-rule="evenodd" d="M22.1645 16.5178L20.7169 21.3601L17.875 20.5912L22.1645 16.5178ZM17.9884 20.5627L20.6775 21.2902L22.0474 16.7082L17.9884 20.5627Z" fill="#A4A4A4"/>
<path d="M17.9312 20.577L20.5985 16.9615L22.1054 16.613L17.9312 20.577Z" fill="#A4A4A4"/>
<path fill-rule="evenodd" clip-rule="evenodd" d="M22.2002 16.5615L17.95 20.5975L17.9067 20.5601L20.5804 16.936L22.2002 16.5615ZM20.6144 16.9868L18.147 20.3314L22.0083 16.6645L20.6144 16.9868Z" fill="#A4A4A4"/>
<path d="M20.0327 13.0604L22.1054 16.613L20.5985 16.9614L20.0327 13.0604ZM20.0327 13.0604L21.3664 12.1465L22.1054 16.613L20.0327 13.0604Z" fill="#BBBBBB"/>
<path fill-rule="evenodd" clip-rule="evenodd" d="M21.3857 12.0972L22.1313 16.6032L22.1481 16.632L20.5727 16.9962L20.0032 13.0698L19.9927 13.0517L21.3857 12.0972ZM20.0808 13.2028L22.0592 16.5939L20.6209 16.9264L20.0808 13.2028ZM22.0496 16.4632L20.0693 13.0687L21.3435 12.1956L22.0496 16.4632Z" fill="#BBBBBB"/>
<path d="M18.3345 10.3758L22.168 8.82227L21.9775 9.67331L18.3345 10.3758ZM21.8563 10.6957L18.3345 10.3758L21.9775 9.67331L21.8563 10.6957Z" fill="#606060"/>
<path fill-rule="evenodd" clip-rule="evenodd" d="M22.2093 8.77515L22.0072 9.67807L21.8828 10.7267L18.333 10.4043L18.3313 10.3713L18.3247 10.3494L22.2093 8.77515ZM18.6179 10.2923L21.9546 9.64886L22.1291 8.86938L18.6179 10.2923ZM18.5393 10.3657L21.9454 9.70882L21.8321 10.6647L18.5393 10.3657Z" fill="#606060"/>
<path d="M21.8563 10.6957L21.3655 12.1465L18.3345 10.3758L21.8563 10.6957ZM22.6241 9.1821L21.9775 9.67331L22.168 8.82227L22.6241 9.1821ZM21.8563 10.6957L21.9775 9.67331L22.4914 10.096L21.8563 10.6957Z" fill="#606060"/>
<path fill-rule="evenodd" clip-rule="evenodd" d="M22.1509 8.77148L22.672 9.18262L22.0248 9.67428L22.5357 10.0946L21.8824 10.7116L21.3826 12.1891L18.3208 10.4005L18.3381 10.3475L21.8319 10.6648L21.9419 9.73723L21.9332 9.74384L21.95 9.66863L21.9561 9.61777L21.9606 9.62149L22.1509 8.77148ZM22.001 9.72902L21.8953 10.6204L22.449 10.0975L22.001 9.72902ZM22.0239 9.60295L22.5783 9.18176L22.1872 8.87322L22.0239 9.60295ZM21.8183 10.7209L18.4608 10.416L21.3505 12.104L21.8183 10.7209Z" fill="#606060"/>
<path d="M14.958 19.429L15.9164 19.7317L17.9313 20.577L14.958 19.429Z" fill="#9A9A9A"/>
<path fill-rule="evenodd" clip-rule="evenodd" d="M14.9473 19.4554L14.9665 19.4016L15.9262 19.7047L17.9424 20.5506L17.9206 20.6035L14.9473 19.4554ZM15.8208 19.7314L16.0854 19.8336L15.9061 19.7583L15.8208 19.7314Z" fill="#9A9A9A"/>
<path d="M21.3656 12.1466L21.8563 10.6958L22.2778 11.0157L21.3656 12.1466ZM21.3656 12.1466L17.3877 10.85L18.3345 10.376L21.3656 12.1466Z" fill="#606060"/>
<path fill-rule="evenodd" clip-rule="evenodd" d="M18.336 10.3433L21.3499 12.1039L21.8422 10.6486L22.3191 11.0106L21.3886 12.1642L21.3666 12.1524L21.357 12.1736L17.313 10.8555L18.336 10.3433ZM21.4451 12.0026L22.2373 11.0205L21.8713 10.7427L21.4451 12.0026ZM21.1211 12.0365L17.4632 10.8443L18.3339 10.4083L21.1211 12.0365Z" fill="#606060"/>
<path d="M19.2814 5.92651L18.3345 10.3759L17.3877 10.85L19.2814 5.92651Z" fill="#606060"/>
<path fill-rule="evenodd" clip-rule="evenodd" d="M17.4424 10.7911L18.3104 10.3565L19.1784 6.27786L17.4424 10.7911ZM19.2557 5.91626L19.3109 5.9323L18.3612 10.3951L17.3354 10.9087L19.2557 5.91626Z" fill="#606060"/>
<path d="M22.168 8.82234L18.3345 10.3759L19.2813 5.92651L22.168 8.82234Z" fill="#606060"/>
<path fill-rule="evenodd" clip-rule="evenodd" d="M19.2636 5.86841L22.2183 8.83242L18.2944 10.4226L19.2636 5.86841ZM19.2979 5.98422L18.3734 10.3289L22.1167 8.81186L19.2979 5.98422Z" fill="#606060"/>
<path d="M19.2808 5.92642L23.2818 5.46948L22.1675 8.82224L19.2808 5.92642Z" fill="#606060"/>
<path fill-rule="evenodd" clip-rule="evenodd" d="M23.3249 5.43604L22.1817 8.87565L19.2202 5.90481L23.3249 5.43604ZM19.3445 5.94811L22.1564 8.76892L23.2418 5.50301L19.3445 5.94811Z" fill="#606060"/>
<path d="M21.3656 12.1464L20.0319 13.0603L17.3877 10.8499L21.3656 12.1464Z" fill="#BBBBBB"/>
<path fill-rule="evenodd" clip-rule="evenodd" d="M17.3701 10.8717L17.3978 10.8228L21.4308 12.1373L20.0312 13.0962L17.3701 10.8717ZM17.521 10.9231L20.0347 13.0244L21.3026 12.1556L17.521 10.9231Z" fill="#BBBBBB"/>
<path d="M23.1086 2.26538L23.2818 5.46964L19.2808 5.92658L23.1086 2.26538Z" fill="#606060"/>
<path fill-rule="evenodd" clip-rule="evenodd" d="M23.1347 2.20117L23.3128 5.49478L19.2002 5.96446L23.1347 2.20117ZM19.3628 5.8884L23.2522 5.4442L23.0838 2.32929L19.3628 5.8884Z" fill="#606060"/>
<path d="M23.1089 2.26538L15.1127 8.01705L15.0088 4.11597L23.1089 2.26538Z" fill="#9A9A9A"/>
<path fill-rule="evenodd" clip-rule="evenodd" d="M15.0389 4.13829L15.1408 7.96178L22.978 2.32452L15.0389 4.13829ZM23.1031 2.2373L23.1266 2.28823L15.086 8.07183L14.98 4.09314L23.1031 2.2373Z" fill="#9A9A9A"/>
<path d="M9.06201 3.64746L15.0087 4.11582L15.1126 8.0169L9.06201 3.64746Z" fill="#BBBBBB"/>
<path fill-rule="evenodd" clip-rule="evenodd" d="M8.9624 3.61108L15.0367 4.0895L15.1429 8.07433L8.9624 3.61108ZM9.16137 3.68405L15.0821 7.9597L14.9804 4.14236L9.16137 3.68405Z" fill="#BBBBBB"/>
<path d="M17.3875 10.85L15.1128 8.01699L19.2812 5.92651L17.3875 10.85Z" fill="#606060"/>
<path fill-rule="evenodd" clip-rule="evenodd" d="M19.3359 5.86743L17.3976 10.9068L15.0693 8.00713L19.3359 5.86743ZM15.1586 8.02642L17.3797 10.7927L19.2289 5.98516L15.1586 8.02642Z" fill="#606060"/>
<path d="M17.3874 10.8499L20.0317 13.0603L16.3193 13.4658L17.3874 10.8499Z" fill="#A4A4A4"/>
<path fill-rule="evenodd" clip-rule="evenodd" d="M17.377 10.8027L20.103 13.0815L16.2759 13.4996L17.377 10.8027ZM17.4007 10.8973L16.3656 13.4323L19.9631 13.0393L17.4007 10.8973Z" fill="#A4A4A4"/>
<path d="M16.3194 13.4658L15.1128 8.01685L17.3875 10.8498L16.3194 13.4658Z" fill="#A4A4A4"/>
<path fill-rule="evenodd" clip-rule="evenodd" d="M15.0854 8.0229L15.1363 7.99902L17.4215 10.8451L16.3121 13.5621L15.0854 8.0229ZM15.1685 8.13101L16.3285 13.3694L17.3553 10.8545L15.1685 8.13101Z" fill="#A4A4A4"/>
<path d="M19.2812 5.92658L15.1128 8.01705L23.109 2.26538L19.2812 5.92658Z" fill="#606060"/>
<path fill-rule="evenodd" clip-rule="evenodd" d="M15.4223 7.82991L19.2647 5.90295L22.793 2.52815L15.4223 7.82991ZM15.0962 7.99386L23.0924 2.24219L23.1295 2.28582L19.2985 5.95001L15.1262 8.04243L15.0962 7.99386Z" fill="#606060"/>
<path d="M9.11535 20.4857L11.0033 22.4334L8.43408 20.1201L9.11535 20.4857Z" fill="#A6A6A6"/>
<path fill-rule="evenodd" clip-rule="evenodd" d="M8.41455 20.1412L8.44774 20.095L9.13297 20.4626L11.024 22.4135L10.9837 22.4544L8.41455 20.1412ZM8.62943 20.2574L10.3947 21.8469L9.09753 20.5086L8.62943 20.2574Z" fill="#A6A6A6"/>
<path d="M17.9312 20.5769L18.826 17.2127L20.5985 16.9614L17.9312 20.5769Z" fill="#9D9D9D"/>
<path fill-rule="evenodd" clip-rule="evenodd" d="M20.6623 16.9236L17.9546 20.5938L17.9033 20.5697L18.8031 17.1872L20.6623 16.9236ZM18.8492 17.2384L17.9981 20.4379L20.5349 16.9993L18.8492 17.2384Z" fill="#9D9D9D"/>
<path d="M1.45947 11.1126L4.72725 7.71411L1.88093 10.707L1.45947 11.1126Z" fill="#9A9A9A"/>
<path d="M20.5974 16.9614L18.8249 17.2127L20.0316 13.0603L20.5974 16.9614ZM15.1126 8.0169L11.9314 7.91409L9.06201 3.64746L15.1126 8.0169Z" fill="#BBBBBB"/>
<path fill-rule="evenodd" clip-rule="evenodd" d="M9.03857 3.66315L9.07963 3.62427L15.2059 8.04835L11.9162 7.94203L9.03857 3.66315ZM9.17625 3.76476L11.9478 7.8859L15.0205 7.98521L9.17625 3.76476ZM18.8656 17.1781L20.5653 16.9371L20.0227 13.1961L18.8656 17.1781ZM20.0044 13.0523L20.0607 13.0561L20.6306 16.9855L18.7855 17.2471L20.0044 13.0523Z" fill="#BBBBBB"/>
<path d="M20.0323 13.0603L18.8257 17.2127L18.7275 15.1851L20.0323 13.0603Z" fill="#B7B7B7"/>
<path fill-rule="evenodd" clip-rule="evenodd" d="M18.7553 15.1923L18.8447 17.0388L19.9435 13.2575L18.7553 15.1923ZM20.0062 13.0454L20.0586 13.0681L18.8519 17.2205L18.7953 17.214L18.6968 15.1776L20.0062 13.0454Z" fill="#B7B7B7"/>
<path d="M16.3193 13.4658L20.0317 13.0603L18.7269 15.1851L16.3193 13.4658Z" fill="#9D9D9D"/>
<path fill-rule="evenodd" clip-rule="evenodd" d="M20.0868 13.0256L18.7353 15.2264L16.2417 13.4457L20.0868 13.0256ZM16.397 13.4862L18.7185 15.1439L19.9766 13.0951L16.397 13.4862Z" fill="#9D9D9D"/>
<path d="M11.9321 7.91406L15.1133 8.01687L16.32 13.4658L11.9321 7.91406Z" fill="#BBBBBB"/>
<path fill-rule="evenodd" clip-rule="evenodd" d="M11.8711 7.88354L15.1364 7.98907L16.3479 13.4597L16.297 13.4834L11.8711 7.88354ZM11.9927 7.94462L16.2644 13.3495L15.0897 8.04471L11.9927 7.94462Z" fill="#BBBBBB"/>
<path d="M11.9324 7.91397L3.34731 0.0546875L9.06303 3.64734L11.9324 7.91397ZM9.05726 21.6791L1.59795 23.9638L0.108398 18.3378L9.05726 21.6791Z" fill="#A4A4A4"/>
<path fill-rule="evenodd" clip-rule="evenodd" d="M3.32828 0.0755833L3.36337 0.0305176L9.08425 3.62642L11.957 7.89809L11.9134 7.93487L3.32828 0.0755833ZM3.60144 0.247832L11.7747 7.73009L9.04296 3.66813L3.60144 0.247832ZM0.0668945 18.2915L9.14673 21.6817L1.57825 23.9999L0.0668945 18.2915ZM0.151061 18.384L1.61881 23.9277L8.96894 21.6764L0.151061 18.384Z" fill="#A4A4A4"/>
<path d="M2.56836 12.5177L5.38581 10.3301L7.74715 10.8727L2.56836 12.5177Z" fill="#606060"/>
<path fill-rule="evenodd" clip-rule="evenodd" d="M5.37667 10.2991L7.8533 10.8682L2.57499 12.5448L2.54834 12.4951L5.37667 10.2991ZM5.39055 10.3609L2.71066 12.4417L7.6366 10.877L5.39055 10.3609Z" fill="#606060"/>
<path d="M7.74709 10.8727L5.38574 10.3301L6.65013 5.16675L7.74709 10.8727Z" fill="#606060"/>
<path fill-rule="evenodd" clip-rule="evenodd" d="M5.42042 10.309L7.71021 10.8351L6.64649 5.30205L5.42042 10.309ZM6.62183 5.16016L6.67825 5.16154L7.78349 10.9106L5.35059 10.3515L6.62183 5.16016Z" fill="#606060"/>
<path d="M1.88232 10.7071L5.38681 10.3301L2.56937 12.5177L1.88232 10.7071Z" fill="#606060"/>
<path fill-rule="evenodd" clip-rule="evenodd" d="M5.48312 10.291L2.55527 12.5643L1.84131 10.6828L5.48312 10.291ZM1.9215 10.7316L2.58162 12.4712L5.28867 10.3694L1.9215 10.7316Z" fill="#606060"/>
<path d="M18.7269 15.185L17.272 14.4597L16.3193 13.4658L18.7269 15.185Z" fill="#9D9D9D"/>
<path fill-rule="evenodd" clip-rule="evenodd" d="M16.2998 13.4854L16.3376 13.4426L18.7452 15.1618L18.7153 15.2105L17.2559 14.4829L16.2998 13.4854ZM16.5538 13.6675L17.2909 14.4364L18.4165 14.9976L16.5538 13.6675Z" fill="#9D9D9D"/>
<path d="M1.88009 10.707L1.63184 9.4104L5.38458 10.33L1.88009 10.707Z" fill="#606060"/>
<path fill-rule="evenodd" clip-rule="evenodd" d="M1.59473 9.37207L5.39115 10.3024L5.38733 10.3585L1.85632 10.7383L1.59473 9.37207ZM1.6682 9.44892L1.90312 10.6758L5.2193 10.3191L1.6682 9.44892Z" fill="#606060"/>
<path d="M16.9722 16.0933L17.2724 14.4597L18.7273 15.1851L16.9722 16.0933Z" fill="#1E1E1E"/>
<path fill-rule="evenodd" clip-rule="evenodd" d="M17.2518 14.417L18.7914 15.1846L16.9341 16.1456L17.2518 14.417ZM17.2948 14.5024L17.012 16.0408L18.665 15.1855L17.2948 14.5024Z" fill="#1E1E1E"/>
<path d="M18.8254 17.2127L16.9722 16.0932L18.7273 15.1851L18.8254 17.2127Z" fill="#BBBBBB"/>
<path fill-rule="evenodd" clip-rule="evenodd" d="M18.7535 15.1392L18.8564 17.2653L16.9131 16.0914L18.7535 15.1392ZM17.0302 16.0953L18.7935 17.1604L18.7001 15.2312L17.0302 16.0953Z" fill="#BBBBBB"/>
<path d="M5.38394 10.3301L1.63119 9.41053L1.3252 8.3196L5.38394 10.3301ZM6.64832 5.16675L5.38394 10.3301L1.3252 8.3196L6.64832 5.16675ZM6.64832 5.16675L11.931 7.91407L7.74528 10.8727L6.64832 5.16675Z" fill="#606060"/>
<path fill-rule="evenodd" clip-rule="evenodd" d="M6.60445 5.22644L1.38556 8.31755L5.36482 10.2887L6.60445 5.22644ZM5.1392 10.2408L1.37079 8.37411L1.65489 9.38701L5.1392 10.2408ZM1.2919 8.30646L1.26562 8.32202L1.3012 8.33964L1.60828 9.43443L5.37428 10.3573L5.40385 10.3719L6.64532 5.3021L7.72575 10.9221L11.9863 7.91054L6.68207 5.15201L6.69299 5.10742L6.6478 5.13419L6.60918 5.1141L6.61659 5.15267L1.32435 8.28723L1.2804 8.26546L1.2919 8.30646ZM6.68826 5.21976L7.7656 10.8237L11.8765 7.91796L6.68826 5.21976Z" fill="#606060"/>
<path d="M7.74658 10.8727L11.9323 7.91406L13.7972 13.5515L7.74658 10.8727ZM13.7972 13.5515L8.01216 13.4316L7.74658 10.8727L13.7972 13.5515Z" fill="#A4A4A4"/>
<path fill-rule="evenodd" clip-rule="evenodd" d="M11.9472 7.86816L13.8445 13.6039L13.7904 13.5799L7.98569 13.4595L7.71921 10.892L7.68848 10.8784L7.7158 10.8591L7.71241 10.8264L7.74291 10.8399L11.9472 7.86816ZM7.78005 10.9189L13.655 13.5199L8.03792 13.4035L7.78005 10.9189ZM13.7491 13.499L7.80397 10.8669L11.9168 7.95986L13.7491 13.499Z" fill="#A4A4A4"/>
<path d="M2.56836 12.5177L7.74715 10.8727L8.01273 13.4316L2.56836 12.5177ZM16.3207 13.4658L13.7977 13.5515L11.9329 7.91406L16.3207 13.4658Z" fill="#BBBBBB"/>
<path fill-rule="evenodd" clip-rule="evenodd" d="M11.9045 7.92296L11.9547 7.89648L16.3775 13.4925L13.7761 13.5808L11.9045 7.92296ZM12.0106 8.05991L13.8175 13.5222L16.2621 13.4392L12.0106 8.05991ZM7.77129 10.8348L8.04438 13.466L2.56259 12.5459L2.55859 12.4905L7.77129 10.8348ZM2.68886 12.5091L7.97919 13.3971L7.72113 10.9107L2.68886 12.5091Z" fill="#BBBBBB"/>
<path d="M17.272 14.4597L16.9717 16.0932L16.3193 13.4658L17.272 14.4597Z" fill="#9D9D9D"/>
<path fill-rule="evenodd" clip-rule="evenodd" d="M16.2656 13.3679L17.3033 14.4505L17.0005 16.0983L16.944 16.1L16.2656 13.3679ZM16.3737 13.5637L16.9678 15.9565L17.2413 14.4688L16.3737 13.5637Z" fill="#9D9D9D"/>
<path d="M3.34766 0.0546875L11.9328 7.91397L6.65007 5.16665L3.34766 0.0546875Z" fill="#606060"/>
<path fill-rule="evenodd" clip-rule="evenodd" d="M3.32324 0.0702759L3.36717 0.0339355L11.9523 7.89322L11.9193 7.93946L6.62978 5.18862L3.32324 0.0702759ZM3.49293 0.226879L6.67019 5.1451L11.7527 7.78831L3.49293 0.226879Z" fill="#606060"/>
<path d="M0.108398 18.338L7.34831 18.041L9.05725 21.6794L0.108398 18.338Z" fill="#A4A4A4"/>
<path fill-rule="evenodd" clip-rule="evenodd" d="M7.3668 18.0117L9.11367 21.7308L0.0986328 18.3648L0.10763 18.3095L7.3668 18.0117ZM0.251459 18.3608L9.00169 21.628L7.33068 18.0704L0.251459 18.3608Z" fill="#A4A4A4"/>
<path d="M9.0566 21.6793L7.34766 18.041L10.9041 17.8696L9.0566 21.6793Z" fill="#9D9D9D"/>
<path fill-rule="evenodd" clip-rule="evenodd" d="M10.9514 17.8386L9.0565 21.7461L7.30371 18.0144L10.9514 17.8386ZM7.39223 18.0673L9.05733 21.6123L10.8574 17.9003L7.39223 18.0673Z" fill="#9D9D9D"/>
<path d="M16.9727 16.0933L18.8259 17.2128L19.8478 19.5946L16.9727 16.0933ZM8.01226 13.4317L0.108398 18.338L2.56789 12.5178L8.01226 13.4317ZM7.34831 18.041L0.108398 18.338L8.01226 13.4317L7.34831 18.041ZM16.3203 13.466L16.7937 15.168L14.5074 15.2994L16.3203 13.466ZM14.5074 15.2994L13.7973 13.5516L16.3203 13.466L14.5074 15.2994Z" fill="#BBBBBB"/>
<path fill-rule="evenodd" clip-rule="evenodd" d="M2.54917 12.4857L8.0053 13.4016L8.04868 13.3746L8.04387 13.408L8.09081 13.4159L8.03801 13.4487L7.37257 18.0684L0.116313 18.3661L0.0457327 18.4099L0.0633284 18.3683L0 18.3709L0.0843595 18.3185L2.54917 12.4857ZM2.58474 12.5496L0.169188 18.2658L7.93184 13.4472L2.58474 12.5496ZM7.97397 13.4884L0.214921 18.3049L7.32218 18.0133L7.97397 13.4884ZM16.3516 13.4741L16.3903 13.4348L16.3411 13.4365L16.3338 13.4103L16.3068 13.4377L13.7542 13.5243L14.4726 15.2926L14.4337 15.3321L14.4874 15.329L14.4962 15.3505L14.5193 15.3271L16.83 15.1944L16.3516 13.4741ZM13.8385 13.5786L14.5167 15.248L16.2483 13.4968L13.8385 13.5786ZM16.3048 13.5213L14.5793 15.2665L16.7554 15.1414L16.3048 13.5213ZM16.9493 16.1112L16.9868 16.0688L18.848 17.1931L19.8735 19.5833L19.8245 19.6125L16.9493 16.1112ZM17.1001 16.2042L19.7405 19.4196L18.8021 17.2323L17.1001 16.2042Z" fill="#BBBBBB"/>
<path d="M11.0033 22.4331L9.05762 21.6792L15.8241 22.8044L11.0033 22.4331Z" fill="#A6A6A6"/>
<path fill-rule="evenodd" clip-rule="evenodd" d="M9.04639 21.7059L9.0617 21.6511L15.8282 22.7763L15.8212 22.833L10.996 22.4614L9.04639 21.7059ZM9.32648 21.7531L11.0091 22.4051L15.1782 22.7262L9.32648 21.7531Z" fill="#A6A6A6"/>
<path d="M2.56798 12.5179L1.45947 11.1128L1.88093 10.7073L2.56798 12.5179Z" fill="#606060"/>
<path fill-rule="evenodd" clip-rule="evenodd" d="M1.89158 10.6562L2.59413 12.5077L2.54435 12.5353L1.41992 11.1101L1.89158 10.6562ZM1.49729 11.1153L2.47377 12.353L1.86855 10.7581L1.49729 11.1153Z" fill="#606060"/>
<path d="M16.592 21.9705L15.8241 22.8044L9.05762 21.6792L16.592 21.9705Z" fill="#E3E3E3"/>
<path fill-rule="evenodd" clip-rule="evenodd" d="M9.05225 21.7073L9.05816 21.6506L16.6545 21.9443L15.8343 22.8351L9.05225 21.7073ZM9.50787 21.7252L15.8128 22.7736L16.5283 21.9966L9.50787 21.7252Z" fill="#E3E3E3"/>
<path d="M16.9557 19.9258L9.05762 21.6793L10.9051 17.8696L16.9557 19.9258Z" fill="#A4A4A4"/>
<path fill-rule="evenodd" clip-rule="evenodd" d="M10.8907 17.8342L17.0621 19.9315L9.00635 21.72L10.8907 17.8342ZM10.9206 17.9048L9.10992 21.6384L16.8504 19.9199L10.9206 17.9048Z" fill="#A4A4A4"/>
<path d="M9.05762 21.6793L16.9557 19.9258L16.592 21.9706L9.05762 21.6793Z" fill="#E3E3E3"/>
<path fill-rule="evenodd" clip-rule="evenodd" d="M16.9906 19.8887L16.615 22.0002L9.05549 21.7079L9.05029 21.6515L16.9906 19.8887ZM9.27853 21.6594L16.5669 21.9412L16.9188 19.9632L9.27853 21.6594Z" fill="#E3E3E3"/>
<path d="M1.3267 8.31978L1.06689 3.92749L6.64983 5.16693L1.3267 8.31978ZM1.88095 10.7073L1.11308 9.93619L1.63269 9.41071L1.88095 10.7073Z" fill="#606060"/>
<path fill-rule="evenodd" clip-rule="evenodd" d="M1.03516 3.89111L6.72596 5.1545L1.29998 8.36827L1.03516 3.89111ZM1.09727 3.96344L1.35205 8.27086L6.57232 5.17893L1.09727 3.96344ZM1.65007 9.35139L1.92629 10.794L1.07195 9.93605L1.65007 9.35139ZM1.15285 9.9359L1.83425 10.6201L1.61395 9.46961L1.15285 9.9359Z" fill="#606060"/>
<path d="M12.5024 14.6824L13.7957 13.5515L13.6109 16.316L12.5024 14.6824Z" fill="#9D9D9D"/>
<path fill-rule="evenodd" clip-rule="evenodd" d="M13.8315 13.4841L13.6366 16.4014L12.4668 14.6776L13.8315 13.4841ZM12.5429 14.6872L13.5901 16.2305L13.7647 13.6188L12.5429 14.6872Z" fill="#9D9D9D"/>
<path d="M13.7975 13.5515L12.5042 14.6824L10.6221 15.6477L13.7975 13.5515Z" fill="#9D9D9D"/>
<path fill-rule="evenodd" clip-rule="evenodd" d="M11.0725 15.384L12.4867 14.6588L13.4584 13.8091L11.0725 15.384ZM10.605 15.624L13.7804 13.5278L13.8155 13.573L12.5196 14.7062L10.6343 15.6731L10.605 15.624Z" fill="#9D9D9D"/>
<path d="M19.8473 19.5945L19.4952 19.3375L16.9722 16.0933L19.8473 19.5945Z" fill="#BBBBBB"/>
<path fill-rule="evenodd" clip-rule="evenodd" d="M16.9492 16.1106L16.9945 16.0752L19.8697 19.5765L19.8301 19.6175L19.4747 19.358L16.9492 16.1106ZM18.3247 17.7856L19.5155 19.3168L19.6817 19.4382L18.3247 17.7856Z" fill="#BBBBBB"/>
<path d="M10.6208 15.6478L8.01123 13.4316L13.7962 13.5516L10.6208 15.6478Z" fill="#9D9D9D"/>
<path fill-rule="evenodd" clip-rule="evenodd" d="M7.93262 13.4014L13.8899 13.5249L10.6199 15.6835L7.93262 13.4014ZM8.09243 13.4618L10.6243 15.6119L13.7051 13.5782L8.09243 13.4618Z" fill="#9D9D9D"/>
<path d="M13.6123 16.316L13.7971 13.5515L14.5072 15.2993L13.6123 16.316Z" fill="#B7B7B7"/>
<path fill-rule="evenodd" clip-rule="evenodd" d="M13.7685 13.5498L13.8241 13.541L14.5408 15.305L13.5781 16.3988L13.7685 13.5498ZM13.8178 13.6786L13.647 16.2335L14.4741 15.2939L13.8178 13.6786Z" fill="#B7B7B7"/>
<path d="M0.859863 8.75367L1.32751 8.31958L1.63351 9.41051L0.859863 8.75367Z" fill="#606060"/>
<path fill-rule="evenodd" clip-rule="evenodd" d="M1.34086 8.2666L1.68497 9.49345L0.814941 8.75477L1.34086 8.2666ZM0.90136 8.75288L1.57862 9.32789L1.31075 8.37287L0.90136 8.75288Z" fill="#606060"/>
<path d="M13.6127 16.3159L10.6221 15.6476L12.5042 14.6824L13.6127 16.3159Z" fill="#1E1E1E"/>
<path fill-rule="evenodd" clip-rule="evenodd" d="M12.5138 14.6453L13.6771 16.3596L10.5386 15.6583L12.5138 14.6453ZM10.7055 15.637L13.5483 16.2722L12.4946 14.7194L10.7055 15.637Z" fill="#1E1E1E"/>
<path d="M6.64983 5.16665L1.06689 3.92721L3.34741 0.0546875L6.64983 5.16665Z" fill="#606060"/>
<path fill-rule="evenodd" clip-rule="evenodd" d="M3.34565 0L6.71128 5.20981L1.02148 3.94665L3.34565 0ZM3.34793 0.109592L1.11106 3.908L6.58714 5.12371L3.34793 0.109592Z" fill="#606060"/>
<path d="M15.8233 22.8044L16.1408 23.6611L11.0024 22.4331L15.8233 22.8044Z" fill="#A6A6A6"/>
<path fill-rule="evenodd" clip-rule="evenodd" d="M10.9966 22.461L11.0056 22.4048L15.8449 22.7775L16.1874 23.7016L10.9966 22.461ZM11.3616 22.4895L16.0961 23.621L15.8035 22.8316L11.3616 22.4895Z" fill="#A6A6A6"/>
<path d="M10.905 17.8696L10.6221 15.6477L13.6127 16.316L10.905 17.8696Z" fill="#BBBBBB"/>
<path fill-rule="evenodd" clip-rule="evenodd" d="M10.5874 15.6108L13.69 16.3041L10.8809 17.9158L10.5874 15.6108ZM10.655 15.6845L10.9273 17.8232L13.5337 16.3278L10.655 15.6845Z" fill="#BBBBBB"/>
<path d="M8.01123 13.4316L10.6208 15.6478L10.9037 17.8696L8.01123 13.4316Z" fill="#B7B7B7"/>
<path fill-rule="evenodd" clip-rule="evenodd" d="M7.98828 13.4471L8.03134 13.4099L10.6494 15.6332L10.9337 17.866L10.8808 17.885L7.98828 13.4471ZM8.14441 13.5812L10.8605 17.7486L10.5949 15.6622L8.14441 13.5812Z" fill="#B7B7B7"/>
<path d="M14.5067 15.2994L16.793 15.168L19.495 19.3375L14.5067 15.2994ZM8.0116 13.4316L10.9041 17.8696L7.34766 18.041L8.0116 13.4316Z" fill="#BBBBBB"/>
<path fill-rule="evenodd" clip-rule="evenodd" d="M7.99376 13.3518L10.9553 17.8957L7.31396 18.0711L7.99376 13.3518ZM8.02909 13.5114L7.38098 18.0107L10.8526 17.8435L8.02909 13.5114ZM16.808 15.1385L19.5191 19.3221L19.4765 19.3596L14.431 15.2751L16.808 15.1385ZM14.5821 15.3236L19.3724 19.2015L16.7777 15.1974L14.5821 15.3236Z" fill="#BBBBBB"/>
<path d="M14.5072 15.2993L17.3477 19.5774L13.6123 16.316L14.5072 15.2993Z" fill="#B7B7B7"/>
<path fill-rule="evenodd" clip-rule="evenodd" d="M14.5095 15.2522L17.371 19.5617L17.3277 19.5988L13.5708 16.3187L14.5095 15.2522ZM13.652 16.3134L17.2045 19.415L14.5031 15.3465L13.652 16.3134Z" fill="#B7B7B7"/>
<path d="M13.6123 16.3159L17.3477 19.5773L16.9551 19.9257L13.6123 16.3159Z" fill="#BBBBBB"/>
<path fill-rule="evenodd" clip-rule="evenodd" d="M13.5903 16.3354L13.6307 16.2947L17.3905 19.5773L16.9525 19.966L13.5903 16.3354ZM14.0003 16.6935L16.9564 19.8857L17.3036 19.5776L14.0003 16.6935Z" fill="#BBBBBB"/>
<path d="M16.9559 19.9258L10.9053 17.8696L13.613 16.316L16.9559 19.9258ZM19.4962 19.3375L17.3485 19.5774L14.5079 15.2993L19.4962 19.3375Z" fill="#BBBBBB"/>
<path fill-rule="evenodd" clip-rule="evenodd" d="M14.4817 15.3151L14.5241 15.2773L19.5653 19.3584L17.332 19.6078L14.4817 15.3151ZM14.6335 15.4397L17.3607 19.5472L19.4228 19.3168L14.6335 15.4397ZM13.6165 16.2799L16.975 19.9066L16.9444 19.9529L10.834 17.8764L13.6165 16.2799ZM10.9724 17.863L16.8558 19.8624L13.6053 16.3524L10.9724 17.863Z" fill="#BBBBBB"/>
<path d="M20.0605 21.3479L19.1367 23.1814L16.1403 23.6611L20.0605 21.3479ZM16.1403 23.6611L15.8228 22.8044L16.5906 21.9705L16.1403 23.6611Z" fill="#A6A6A6"/>
<path fill-rule="evenodd" clip-rule="evenodd" d="M20.1321 21.2737L19.1578 23.2074L16.1653 23.6865L16.1467 23.7565L15.7915 22.7981L16.5712 21.9514L16.6204 21.9779L16.1881 23.601L20.1321 21.2737ZM16.1377 23.5662L16.5346 22.0759L15.8578 22.811L16.1377 23.5662ZM16.2868 23.6092L19.1194 23.1557L19.9926 21.4225L16.2868 23.6092Z" fill="#A6A6A6"/>
<path d="M16.5919 21.9705L17.1577 21.7477L16.1416 23.6611L16.5919 21.9705ZM16.1416 23.6611L17.1577 21.7477L20.0618 21.3479L16.1416 23.6611Z" fill="#A6A6A6"/>
<path fill-rule="evenodd" clip-rule="evenodd" d="M17.1498 21.7199L17.1385 21.7214L17.1366 21.7251L16.5672 21.9492L16.114 23.6507L16.0679 23.7376L20.076 21.3724L20.0573 21.3196L17.2089 21.7117L17.2191 21.6926L17.1498 21.7199ZM17.0953 21.8028L16.2338 23.4251L16.6156 21.9916L17.0953 21.8028ZM16.2143 23.5846L17.1759 21.7739L19.924 21.3956L16.2143 23.5846Z" fill="#A6A6A6"/>
<path d="M19.495 19.3374L20.2052 19.7658L18.0459 20.0228L19.495 19.3374Z" fill="#161616"/>
<path fill-rule="evenodd" clip-rule="evenodd" d="M19.4974 19.3049L20.292 19.7843L18.0501 20.0511L18.0342 19.997L19.4974 19.3049ZM18.2173 19.9737L20.1198 19.7472L19.4941 19.3698L18.2173 19.9737Z" fill="#161616"/>
<path d="M18.0462 20.0228L17.3477 19.5773L19.4954 19.3374L18.0462 20.0228ZM17.798 20.3598L20.4249 20.0457L20.0612 21.3479L17.798 20.3598Z" fill="#161616"/>
<path fill-rule="evenodd" clip-rule="evenodd" d="M17.432 19.5967L18.049 19.9902L19.3289 19.3849L17.432 19.5967ZM19.4928 19.3091L19.5085 19.3632L18.0448 20.0555L17.2646 19.558L19.4928 19.3091ZM20.4649 20.0122L20.0808 21.3875L17.6908 20.344L20.4649 20.0122ZM17.9065 20.3757L20.0429 21.3085L20.3863 20.0792L17.9065 20.3757Z" fill="#161616"/>
<path d="M20.0597 21.348L17.1556 21.7478L17.7965 20.3599L20.0597 21.348ZM17.1556 21.7478L16.5898 21.9706L16.9536 19.9258L17.1556 21.7478ZM16.9536 19.9258L17.3462 19.5774L18.0448 20.0229L16.9536 19.9258ZM20.204 19.7659L20.4234 20.0458L17.7965 20.3599L20.204 19.7659Z" fill="#161616"/>
<path fill-rule="evenodd" clip-rule="evenodd" d="M17.3446 19.5415L18.0617 19.9988L18.0434 20.0513L16.9874 19.9573L17.1742 21.6416L17.7833 20.3223L17.8004 20.3297L20.2166 19.7336L20.4787 20.068L17.9056 20.3757L20.1655 21.3624L17.1643 21.7756L16.5537 22.016L16.921 19.9514L16.8862 19.9483L17.3446 19.5415ZM16.9482 20.1278L16.6285 21.9251L17.1258 21.7293L16.9482 20.1278ZM17.205 21.7123L17.8122 20.3973L19.9564 21.3335L17.205 21.7123ZM18.2555 20.2763L20.3707 20.0234L20.194 19.798L18.2555 20.2763ZM17.0235 19.9032L17.9318 19.984L17.3503 19.6131L17.0235 19.9032Z" fill="#161616"/>
<path d="M17.797 20.3599L18.0453 20.0229L20.2046 19.7659L17.797 20.3599ZM16.9541 19.9258L17.797 20.3599L17.1562 21.7478L16.9541 19.9258Z" fill="#161616"/>
<path fill-rule="evenodd" clip-rule="evenodd" d="M18.0616 20.0498L17.8676 20.3132L19.7492 19.8489L18.0616 20.0498ZM17.7887 20.3232L18.0298 19.9961L20.2015 19.7375L20.2119 19.7936L17.8179 20.3843L17.1393 21.854L16.9199 19.8758L17.7887 20.3232ZM17.7543 20.3699L16.9891 19.9758L17.1738 21.6417L17.7463 20.402L17.7273 20.4067L17.7543 20.3699Z" fill="#161616"/>
<path d="M18.0453 20.0229L17.797 20.3599L16.9541 19.9258L18.0453 20.0229Z" fill="#161616"/>
<path fill-rule="evenodd" clip-rule="evenodd" d="M16.9424 19.9512L16.9583 19.8975L18.1002 19.9991L17.8073 20.3967L16.9424 19.9512ZM17.0986 19.9673L17.7899 20.3233L17.9935 20.0469L17.0986 19.9673Z" fill="#161616"/>
</svg>
