<svg width="24" height="24" viewBox="0 0 24 24" fill="none" xmlns="http://www.w3.org/2000/svg">
<path d="M22.1048 16.613L20.6961 21.3252L17.9307 20.5769L22.1048 16.613Z" fill="#E4761B"/>
<path fill-rule="evenodd" clip-rule="evenodd" d="M22.1635 16.5178L20.7158 21.3601L17.874 20.5912L22.1635 16.5178ZM17.9874 20.5627L20.6765 21.2902L22.0463 16.7082L17.9874 20.5627Z" fill="#E4761B"/>
<path d="M17.9307 20.577L20.598 16.9615L22.1048 16.613L17.9307 20.577Z" fill="#E4761B"/>
<path fill-rule="evenodd" clip-rule="evenodd" d="M22.2006 16.5615L17.9505 20.5975L17.9072 20.5601L20.5808 16.936L22.2006 16.5615ZM20.6149 16.9868L18.1474 20.3314L22.0088 16.6645L20.6149 16.9868Z" fill="#E4761B"/>
<path d="M20.0322 13.0604L22.1049 16.613L20.598 16.9614L20.0322 13.0604ZM20.0322 13.0604L21.3659 12.1465L22.1049 16.613L20.0322 13.0604Z" fill="#F6851B"/>
<path fill-rule="evenodd" clip-rule="evenodd" d="M21.3852 12.0972L22.1308 16.6032L22.1476 16.632L20.5722 16.9962L20.0027 13.0698L19.9922 13.0517L21.3852 12.0972ZM20.0803 13.2028L22.0587 16.5939L20.6204 16.9264L20.0803 13.2028ZM22.0491 16.4632L20.0688 13.0687L21.343 12.1956L22.0491 16.4632Z" fill="#F6851B"/>
<path d="M18.334 10.3758L22.1675 8.82227L21.977 9.67331L18.334 10.3758ZM21.8558 10.6957L18.334 10.3758L21.977 9.67331L21.8558 10.6957Z" fill="#763D16"/>
<path fill-rule="evenodd" clip-rule="evenodd" d="M22.2088 8.77515L22.0067 9.67807L21.8823 10.7267L18.3325 10.4043L18.3308 10.3713L18.3242 10.3494L22.2088 8.77515ZM18.6174 10.2923L21.9541 9.64886L22.1286 8.86938L18.6174 10.2923ZM18.5388 10.3657L21.9449 9.70882L21.8315 10.6647L18.5388 10.3657Z" fill="#763D16"/>
<path d="M21.8558 10.6957L21.365 12.1465L18.334 10.3758L21.8558 10.6957ZM22.6236 9.1821L21.977 9.67331L22.1675 8.82227L22.6236 9.1821ZM21.8558 10.6957L21.977 9.67331L22.4908 10.096L21.8558 10.6957Z" fill="#763D16"/>
<path fill-rule="evenodd" clip-rule="evenodd" d="M22.1503 8.77148L22.6715 9.18262L22.0242 9.67428L22.5352 10.0946L21.8819 10.7116L21.3821 12.1891L18.3203 10.4005L18.3376 10.3475L21.8314 10.6648L21.9414 9.73723L21.9327 9.74384L21.9495 9.66863L21.9555 9.61777L21.9601 9.62149L22.1503 8.77148ZM22.0005 9.72902L21.8948 10.6204L22.4485 10.0975L22.0005 9.72902ZM22.0233 9.60295L22.5778 9.18176L22.1867 8.87322L22.0233 9.60295ZM21.8178 10.7209L18.4603 10.416L21.35 12.104L21.8178 10.7209Z" fill="#763D16"/>
<path d="M14.958 19.429L15.9164 19.7317L17.9313 20.577L14.958 19.429Z" fill="#E2761B"/>
<path fill-rule="evenodd" clip-rule="evenodd" d="M14.9473 19.4554L14.9665 19.4016L15.9262 19.7047L17.9423 20.5506L17.9206 20.6035L14.9473 19.4554ZM15.8208 19.7314L16.0854 19.8336L15.9061 19.7583L15.8208 19.7314Z" fill="#E2761B"/>
<path d="M21.3646 12.1466L21.8553 10.6958L22.2768 11.0157L21.3646 12.1466ZM21.3646 12.1466L17.3867 10.85L18.3336 10.376L21.3646 12.1466Z" fill="#763D16"/>
<path fill-rule="evenodd" clip-rule="evenodd" d="M18.3355 10.3433L21.3494 12.1039L21.8417 10.6486L22.3186 11.0106L21.388 12.1642L21.3661 12.1524L21.3564 12.1736L17.3125 10.8555L18.3355 10.3433ZM21.4446 12.0026L22.2367 11.0205L21.8707 10.7427L21.4446 12.0026ZM21.1206 12.0365L17.4627 10.8443L18.3334 10.4083L21.1206 12.0365Z" fill="#763D16"/>
<path d="M19.2804 5.92651L18.3336 10.3759L17.3867 10.85L19.2804 5.92651Z" fill="#763D16"/>
<path fill-rule="evenodd" clip-rule="evenodd" d="M17.442 10.7911L18.3099 10.3565L19.1778 6.27786L17.442 10.7911ZM19.2552 5.91626L19.3104 5.9323L18.3607 10.3951L17.335 10.9087L19.2552 5.91626Z" fill="#763D16"/>
<path d="M22.1675 8.82234L18.334 10.3759L19.2808 5.92651L22.1675 8.82234Z" fill="#763D16"/>
<path fill-rule="evenodd" clip-rule="evenodd" d="M19.2641 5.86841L22.2187 8.83242L18.2949 10.4226L19.2641 5.86841ZM19.2984 5.98422L18.3739 10.3289L22.1171 8.81186L19.2984 5.98422Z" fill="#763D16"/>
<path d="M19.2803 5.92642L23.2812 5.46948L22.167 8.82224L19.2803 5.92642Z" fill="#763D16"/>
<path fill-rule="evenodd" clip-rule="evenodd" d="M23.3234 5.43604L22.1802 8.87565L19.2188 5.90481L23.3234 5.43604ZM19.343 5.94811L22.1549 8.76892L23.2403 5.50301L19.343 5.94811Z" fill="#763D16"/>
<path d="M21.3646 12.1464L20.0309 13.0603L17.3867 10.8499L21.3646 12.1464Z" fill="#F6851B"/>
<path fill-rule="evenodd" clip-rule="evenodd" d="M17.3701 10.8717L17.3978 10.8228L21.4307 12.1373L20.0312 13.0962L17.3701 10.8717ZM17.521 10.9231L20.0347 13.0244L21.3025 12.1556L17.521 10.9231Z" fill="#F6851B"/>
<path d="M23.108 2.26538L23.2812 5.46964L19.2803 5.92658L23.108 2.26538Z" fill="#763D16"/>
<path fill-rule="evenodd" clip-rule="evenodd" d="M23.1347 2.20117L23.3127 5.49478L19.2002 5.96446L23.1347 2.20117ZM19.3628 5.8884L23.2522 5.4442L23.0838 2.32929L19.3628 5.8884Z" fill="#763D16"/>
<path d="M23.1089 2.26538L15.1127 8.01705L15.0088 4.11597L23.1089 2.26538Z" fill="#E2761B"/>
<path fill-rule="evenodd" clip-rule="evenodd" d="M15.0394 4.13829L15.1413 7.96178L22.9784 2.32452L15.0394 4.13829ZM23.1035 2.2373L23.127 2.28823L15.0865 8.07183L14.9805 4.09314L23.1035 2.2373Z" fill="#E2761B"/>
<path d="M9.06152 3.64746L15.0081 4.11582L15.112 8.0169L9.06152 3.64746Z" fill="#F6851B"/>
<path fill-rule="evenodd" clip-rule="evenodd" d="M8.96191 3.61108L15.0362 4.0895L15.1423 8.07433L8.96191 3.61108ZM9.16088 3.68405L15.0815 7.9597L14.9798 4.14236L9.16088 3.68405Z" fill="#F6851B"/>
<path d="M17.388 10.85L15.1133 8.01699L19.2817 5.92651L17.388 10.85Z" fill="#763D16"/>
<path fill-rule="evenodd" clip-rule="evenodd" d="M19.3359 5.86743L17.3976 10.9068L15.0693 8.00713L19.3359 5.86743ZM15.1586 8.02642L17.3797 10.7927L19.2288 5.98516L15.1586 8.02642Z" fill="#763D16"/>
<path d="M17.3874 10.8499L20.0316 13.0603L16.3193 13.4658L17.3874 10.8499Z" fill="#E4761B"/>
<path fill-rule="evenodd" clip-rule="evenodd" d="M17.3765 10.8027L20.1025 13.0815L16.2754 13.4996L17.3765 10.8027ZM17.4002 10.8973L16.3651 13.4323L19.9626 13.0393L17.4002 10.8973Z" fill="#E4761B"/>
<path d="M16.3199 13.4658L15.1133 8.01685L17.388 10.8498L16.3199 13.4658Z" fill="#E4761B"/>
<path fill-rule="evenodd" clip-rule="evenodd" d="M15.085 8.0229L15.1358 7.99902L17.4209 10.8451L16.3116 13.5621L15.085 8.0229ZM15.168 8.13101L16.328 13.3694L17.3548 10.8545L15.168 8.13101Z" fill="#E4761B"/>
<path d="M19.2817 5.92658L15.1133 8.01705L23.1094 2.26538L19.2817 5.92658Z" fill="#763D16"/>
<path fill-rule="evenodd" clip-rule="evenodd" d="M15.4218 7.82991L19.2641 5.90295L22.7925 2.52815L15.4218 7.82991ZM15.0957 7.99386L23.0919 2.24219L23.1289 2.28582L19.298 5.95001L15.1257 8.04243L15.0957 7.99386Z" fill="#763D16"/>
<path d="M9.11485 20.4857L11.0028 22.4334L8.43359 20.1201L9.11485 20.4857Z" fill="#C0AD9E"/>
<path fill-rule="evenodd" clip-rule="evenodd" d="M8.41406 20.1412L8.44726 20.095L9.13247 20.4626L11.0235 22.4135L10.9832 22.4544L8.41406 20.1412ZM8.62894 20.2574L10.3942 21.8469L9.09703 20.5086L8.62894 20.2574Z" fill="#C0AD9E"/>
<path d="M17.9307 20.5769L18.8255 17.2127L20.598 16.9614L17.9307 20.5769Z" fill="#CD6116"/>
<path fill-rule="evenodd" clip-rule="evenodd" d="M20.6622 16.9236L17.9546 20.5938L17.9033 20.5697L18.8031 17.1872L20.6622 16.9236ZM18.8492 17.2384L17.9981 20.4379L20.5349 16.9993L18.8492 17.2384Z" fill="#CD6116"/>
<path d="M1.45898 11.1126L4.72672 7.71411L1.88044 10.707L1.45898 11.1126Z" fill="#E2761B"/>
<path d="M20.5968 16.9614L18.8243 17.2127L20.031 13.0603L20.5968 16.9614ZM15.112 8.0169L11.9309 7.91409L9.06152 3.64746L15.112 8.0169Z" fill="#F6851B"/>
<path fill-rule="evenodd" clip-rule="evenodd" d="M9.03809 3.66315L9.07914 3.62427L15.2053 8.04835L11.9157 7.94203L9.03809 3.66315ZM9.17576 3.76476L11.9473 7.8859L15.02 7.98521L9.17576 3.76476ZM18.865 17.1781L20.5647 16.9371L20.0221 13.1961L18.865 17.1781ZM20.0038 13.0523L20.0601 13.0561L20.63 16.9855L18.7849 17.2471L20.0038 13.0523Z" fill="#F6851B"/>
<path d="M20.0323 13.0603L18.8257 17.2127L18.7275 15.1851L20.0323 13.0603Z" fill="#E4751F"/>
<path fill-rule="evenodd" clip-rule="evenodd" d="M18.7558 15.1923L18.8452 17.0388L19.944 13.2575L18.7558 15.1923ZM20.0066 13.0454L20.0591 13.0681L18.8524 17.2205L18.7958 17.214L18.6973 15.1776L20.0066 13.0454Z" fill="#E4751F"/>
<path d="M16.3193 13.4658L20.0316 13.0603L18.7268 15.1851L16.3193 13.4658Z" fill="#CD6116"/>
<path fill-rule="evenodd" clip-rule="evenodd" d="M20.0863 13.0256L18.7348 15.2264L16.2412 13.4457L20.0863 13.0256ZM16.3966 13.4862L18.7179 15.1439L19.9761 13.0951L16.3966 13.4862Z" fill="#CD6116"/>
<path d="M11.9316 7.91406L15.1128 8.01687L16.3194 13.4658L11.9316 7.91406Z" fill="#F6851B"/>
<path fill-rule="evenodd" clip-rule="evenodd" d="M11.8711 7.88354L15.1364 7.98907L16.3478 13.4597L16.2969 13.4834L11.8711 7.88354ZM11.9927 7.94462L16.2643 13.3495L15.0896 8.04471L11.9927 7.94462Z" fill="#F6851B"/>
<path d="M11.9323 7.91397L3.34727 0.0546875L9.06293 3.64734L11.9323 7.91397ZM9.05716 21.6791L1.59793 23.9638L0.108398 18.3378L9.05716 21.6791Z" fill="#E4761B"/>
<path fill-rule="evenodd" clip-rule="evenodd" d="M3.32873 0.0755833L3.36382 0.0305176L9.08464 3.62642L11.9574 7.89809L11.9138 7.93487L3.32873 0.0755833ZM3.60189 0.247832L11.7751 7.73009L9.04335 3.66813L3.60189 0.247832ZM0.0673828 18.2915L9.14712 21.6817L1.57872 23.9999L0.0673828 18.2915ZM0.151548 18.384L1.61928 23.9277L8.96933 21.6764L0.151548 18.384Z" fill="#E4761B"/>
<path d="M2.56836 12.5177L5.38577 10.3301L7.74709 10.8727L2.56836 12.5177Z" fill="#763D16"/>
<path fill-rule="evenodd" clip-rule="evenodd" d="M5.37712 10.2991L7.85373 10.8682L2.57548 12.5448L2.54883 12.4951L5.37712 10.2991ZM5.39101 10.3609L2.71115 12.4417L7.63704 10.877L5.39101 10.3609Z" fill="#763D16"/>
<path d="M7.74706 10.8727L5.38574 10.3301L6.65011 5.16675L7.74706 10.8727Z" fill="#763D16"/>
<path fill-rule="evenodd" clip-rule="evenodd" d="M5.41944 10.309L7.7092 10.8351L6.6455 5.30205L5.41944 10.309ZM6.62084 5.16016L6.67726 5.16154L7.78248 10.9106L5.34961 10.3515L6.62084 5.16016Z" fill="#763D16"/>
<path d="M1.88184 10.7071L5.38629 10.3301L2.56887 12.5177L1.88184 10.7071Z" fill="#763D16"/>
<path fill-rule="evenodd" clip-rule="evenodd" d="M5.48259 10.291L2.55478 12.5643L1.84082 10.6828L5.48259 10.291ZM1.92102 10.7316L2.58113 12.4712L5.28814 10.3694L1.92102 10.7316Z" fill="#763D16"/>
<path d="M18.7268 15.185L17.2719 14.4597L16.3193 13.4658L18.7268 15.185Z" fill="#CD6116"/>
<path fill-rule="evenodd" clip-rule="evenodd" d="M16.2998 13.4854L16.3376 13.4426L18.7452 15.1618L18.7153 15.2105L17.2559 14.4829L16.2998 13.4854ZM16.5538 13.6675L17.2908 14.4364L18.4165 14.9976L16.5538 13.6675Z" fill="#CD6116"/>
<path d="M1.88107 10.707L1.63281 9.4104L5.38552 10.33L1.88107 10.707Z" fill="#763D16"/>
<path fill-rule="evenodd" clip-rule="evenodd" d="M1.59473 9.37207L5.39111 10.3024L5.38729 10.3585L1.85632 10.7383L1.59473 9.37207ZM1.6682 9.44892L1.90312 10.6758L5.21926 10.3191L1.6682 9.44892Z" fill="#763D16"/>
<path d="M16.9727 16.0933L17.2729 14.4597L18.7278 15.1851L16.9727 16.0933Z" fill="#233447"/>
<path fill-rule="evenodd" clip-rule="evenodd" d="M17.2513 14.417L18.7909 15.1846L16.9336 16.1456L17.2513 14.417ZM17.2943 14.5024L17.0115 16.0408L18.6645 15.1855L17.2943 14.5024Z" fill="#233447"/>
<path d="M18.8259 17.2127L16.9727 16.0932L18.7278 15.1851L18.8259 17.2127Z" fill="#F6851B"/>
<path fill-rule="evenodd" clip-rule="evenodd" d="M18.7534 15.1392L18.8564 17.2653L16.9131 16.0914L18.7534 15.1392ZM17.0302 16.0953L18.7935 17.1604L18.7001 15.2312L17.0302 16.0953Z" fill="#F6851B"/>
<path d="M5.38487 10.3301L1.63216 9.41053L1.32617 8.3196L5.38487 10.3301ZM6.64924 5.16675L5.38487 10.3301L1.32617 8.3196L6.64924 5.16675ZM6.64924 5.16675L11.9319 7.91407L7.74619 10.8727L6.64924 5.16675Z" fill="#763D16"/>
<path fill-rule="evenodd" clip-rule="evenodd" d="M6.60439 5.22644L1.38556 8.31755L5.36477 10.2887L6.60439 5.22644ZM5.13916 10.2408L1.37079 8.37411L1.65489 9.38701L5.13916 10.2408ZM1.2919 8.30646L1.26562 8.32202L1.3012 8.33964L1.60827 9.43443L5.37423 10.3573L5.4038 10.3719L6.64526 5.3021L7.72568 10.9221L11.9862 7.91054L6.68201 5.15201L6.69293 5.10742L6.64774 5.13419L6.60912 5.1141L6.61653 5.15267L1.32435 8.28723L1.2804 8.26546L1.2919 8.30646ZM6.6882 5.21976L7.76553 10.8237L11.8764 7.91796L6.6882 5.21976Z" fill="#763D16"/>
<path d="M7.74707 10.8727L11.9328 7.91406L13.7976 13.5515L7.74707 10.8727ZM13.7976 13.5515L8.01265 13.4316L7.74707 10.8727L13.7976 13.5515Z" fill="#E4761B"/>
<path fill-rule="evenodd" clip-rule="evenodd" d="M11.9471 7.86816L13.8445 13.6039L13.7903 13.5799L7.98569 13.4595L7.71921 10.892L7.68848 10.8784L7.7158 10.8591L7.7124 10.8264L7.74291 10.8399L11.9471 7.86816ZM7.78005 10.9189L13.6549 13.5199L8.03791 13.4035L7.78005 10.9189ZM13.749 13.499L7.80397 10.8669L11.9167 7.95986L13.749 13.499Z" fill="#E4761B"/>
<path d="M2.56836 12.5177L7.74709 10.8727L8.01267 13.4316L2.56836 12.5177ZM16.3206 13.4658L13.7976 13.5515L11.9328 7.91406L16.3206 13.4658Z" fill="#F6851B"/>
<path fill-rule="evenodd" clip-rule="evenodd" d="M11.9044 7.92296L11.9546 7.89648L16.3773 13.4925L13.776 13.5808L11.9044 7.92296ZM12.0105 8.05991L13.8174 13.5222L16.262 13.4392L12.0105 8.05991ZM7.77123 10.8348L8.04432 13.466L2.56259 12.5459L2.55859 12.4905L7.77123 10.8348ZM2.68886 12.5091L7.97913 13.3971L7.72107 10.9107L2.68886 12.5091Z" fill="#F6851B"/>
<path d="M17.2719 14.4597L16.9717 16.0932L16.3193 13.4658L17.2719 14.4597Z" fill="#CD6116"/>
<path fill-rule="evenodd" clip-rule="evenodd" d="M16.2656 13.3679L17.3033 14.4505L17.0004 16.0983L16.944 16.1L16.2656 13.3679ZM16.3737 13.5637L16.9678 15.9565L17.2412 14.4688L16.3737 13.5637Z" fill="#CD6116"/>
<path d="M3.34766 0.0546875L11.9327 7.91397L6.65004 5.16665L3.34766 0.0546875Z" fill="#763D16"/>
<path fill-rule="evenodd" clip-rule="evenodd" d="M3.32227 0.0702759L3.3662 0.0339355L11.9512 7.89322L11.9182 7.93946L6.62877 5.18862L3.32227 0.0702759ZM3.49195 0.226879L6.66917 5.1451L11.7516 7.78831L3.49195 0.226879Z" fill="#763D16"/>
<path d="M0.108398 18.338L7.34823 18.041L9.05716 21.6794L0.108398 18.338Z" fill="#E4761B"/>
<path fill-rule="evenodd" clip-rule="evenodd" d="M7.36672 18.0117L9.11357 21.7308L0.0986328 18.3648L0.10763 18.3095L7.36672 18.0117ZM0.251457 18.3608L9.0016 21.628L7.3306 18.0704L0.251457 18.3608Z" fill="#E4761B"/>
<path d="M9.05658 21.6793L7.34766 18.041L10.9041 17.8696L9.05658 21.6793Z" fill="#CD6116"/>
<path fill-rule="evenodd" clip-rule="evenodd" d="M10.9514 17.8386L9.05648 21.7461L7.30371 18.0144L10.9514 17.8386ZM7.39223 18.0673L9.05731 21.6123L10.8574 17.9003L7.39223 18.0673Z" fill="#CD6116"/>
<path d="M16.9725 16.0933L18.8257 17.2128L19.8476 19.5946L16.9725 16.0933ZM8.01217 13.4317L0.108398 18.338L2.56786 12.5178L8.01217 13.4317ZM7.34823 18.041L0.108398 18.338L8.01217 13.4317L7.34823 18.041ZM16.3201 13.466L16.7935 15.168L14.5072 15.2994L16.3201 13.466ZM14.5072 15.2994L13.7971 13.5516L16.3201 13.466L14.5072 15.2994Z" fill="#F6851B"/>
<path fill-rule="evenodd" clip-rule="evenodd" d="M2.54914 12.4857L8.00521 13.4016L8.04859 13.3746L8.04378 13.408L8.09072 13.4159L8.03792 13.4487L7.37248 18.0684L0.116312 18.3661L0.0457322 18.4099L0.0633277 18.3683L0 18.3709L0.0843586 18.3185L2.54914 12.4857ZM2.58471 12.5496L0.169186 18.2658L7.93175 13.4472L2.58471 12.5496ZM7.97388 13.4884L0.214919 18.3049L7.3221 18.0133L7.97388 13.4884ZM16.3514 13.4741L16.3902 13.4348L16.3409 13.4365L16.3336 13.4103L16.3066 13.4377L13.754 13.5243L14.4725 15.2926L14.4335 15.3321L14.4873 15.329L14.496 15.3505L14.5191 15.3271L16.8299 15.1944L16.3514 13.4741ZM13.8383 13.5786L14.5166 15.248L16.2481 13.4968L13.8383 13.5786ZM16.3046 13.5213L14.5791 15.2665L16.7553 15.1414L16.3046 13.5213ZM16.9491 16.1112L16.9866 16.0688L18.8477 17.1931L19.8733 19.5833L19.8243 19.6125L16.9491 16.1112ZM17.0999 16.2042L19.7403 19.4196L18.8018 17.2323L17.0999 16.2042Z" fill="#F6851B"/>
<path d="M11.0033 22.4331L9.05762 21.6792L15.824 22.8044L11.0033 22.4331Z" fill="#C0AD9E"/>
<path fill-rule="evenodd" clip-rule="evenodd" d="M9.04688 21.7059L9.06219 21.6511L15.8286 22.7763L15.8216 22.833L10.9965 22.4614L9.04688 21.7059ZM9.32696 21.7531L11.0096 22.4051L15.1786 22.7262L9.32696 21.7531Z" fill="#C0AD9E"/>
<path d="M2.56748 12.5179L1.45898 11.1128L1.88044 10.7073L2.56748 12.5179Z" fill="#763D16"/>
<path fill-rule="evenodd" clip-rule="evenodd" d="M1.8906 10.6562L2.59315 12.5077L2.54336 12.5353L1.41895 11.1101L1.8906 10.6562ZM1.49631 11.1153L2.47278 12.353L1.86757 10.7581L1.49631 11.1153Z" fill="#763D16"/>
<path d="M16.5919 21.9705L15.824 22.8044L9.05762 21.6792L16.5919 21.9705Z" fill="#D7C1B3"/>
<path fill-rule="evenodd" clip-rule="evenodd" d="M9.05273 21.7073L9.05865 21.6506L16.6549 21.9443L15.8347 22.8351L9.05273 21.7073ZM9.50835 21.7252L15.8132 22.7736L16.5287 21.9966L9.50835 21.7252Z" fill="#D7C1B3"/>
<path d="M16.9556 19.9258L9.05762 21.6793L10.9051 17.8696L16.9556 19.9258Z" fill="#E4761B"/>
<path fill-rule="evenodd" clip-rule="evenodd" d="M10.8902 17.8342L17.0615 19.9315L9.00586 21.72L10.8902 17.8342ZM10.92 17.9048L9.10943 21.6384L16.8498 19.9199L10.92 17.9048Z" fill="#E4761B"/>
<path d="M9.05762 21.6793L16.9556 19.9258L16.5919 21.9706L9.05762 21.6793Z" fill="#D7C1B3"/>
<path fill-rule="evenodd" clip-rule="evenodd" d="M16.9901 19.8887L16.6145 22.0002L9.055 21.7079L9.0498 21.6515L16.9901 19.8887ZM9.27804 21.6594L16.5663 21.9412L16.9182 19.9632L9.27804 21.6594Z" fill="#D7C1B3"/>
<path d="M1.32621 8.31978L1.06641 3.92749L6.64928 5.16693L1.32621 8.31978ZM1.88045 10.7073L1.11259 9.93619L1.6322 9.41071L1.88045 10.7073Z" fill="#763D16"/>
<path fill-rule="evenodd" clip-rule="evenodd" d="M1.03516 3.89111L6.7259 5.1545L1.29998 8.36827L1.03516 3.89111ZM1.09727 3.96344L1.35205 8.27086L6.57226 5.17893L1.09727 3.96344ZM1.65007 9.35139L1.92628 10.794L1.07195 9.93605L1.65007 9.35139ZM1.15285 9.9359L1.83424 10.6201L1.61394 9.46961L1.15285 9.9359Z" fill="#763D16"/>
<path d="M12.5029 14.6824L13.7962 13.5515L13.6114 16.316L12.5029 14.6824Z" fill="#CD6116"/>
<path fill-rule="evenodd" clip-rule="evenodd" d="M13.8305 13.4841L13.6356 16.4014L12.4658 14.6776L13.8305 13.4841ZM12.5419 14.6872L13.5891 16.2305L13.7637 13.6188L12.5419 14.6872Z" fill="#CD6116"/>
<path d="M13.7965 13.5515L12.5032 14.6824L10.6211 15.6477L13.7965 13.5515Z" fill="#CD6116"/>
<path fill-rule="evenodd" clip-rule="evenodd" d="M11.073 15.384L12.4872 14.6588L13.4589 13.8091L11.073 15.384ZM10.6055 15.624L13.7808 13.5278L13.816 13.573L12.5201 14.7062L10.6348 15.6731L10.6055 15.624Z" fill="#CD6116"/>
<path d="M19.8478 19.5945L19.4956 19.3375L16.9727 16.0933L19.8478 19.5945Z" fill="#F6851B"/>
<path fill-rule="evenodd" clip-rule="evenodd" d="M16.9502 16.1106L16.9955 16.0752L19.8706 19.5765L19.8311 19.6175L19.4756 19.358L16.9502 16.1106ZM18.3257 17.7856L19.5165 19.3168L19.6827 19.4382L18.3257 17.7856Z" fill="#F6851B"/>
<path d="M10.6213 15.6478L8.01172 13.4316L13.7967 13.5516L10.6213 15.6478Z" fill="#CD6116"/>
<path fill-rule="evenodd" clip-rule="evenodd" d="M7.93164 13.4014L13.8889 13.5249L10.6189 15.6835L7.93164 13.4014ZM8.09145 13.4618L10.6233 15.6119L13.7041 13.5782L8.09145 13.4618Z" fill="#CD6116"/>
<path d="M13.6123 16.316L13.7971 13.5515L14.5072 15.2993L13.6123 16.316Z" fill="#E4751F"/>
<path fill-rule="evenodd" clip-rule="evenodd" d="M13.7685 13.5498L13.8241 13.541L14.5408 15.305L13.5781 16.3988L13.7685 13.5498ZM13.8178 13.6786L13.647 16.2335L14.4741 15.2939L13.8178 13.6786Z" fill="#E4751F"/>
<path d="M0.859375 8.75367L1.32702 8.31958L1.63301 9.41051L0.859375 8.75367Z" fill="#763D16"/>
<path fill-rule="evenodd" clip-rule="evenodd" d="M1.34036 8.2666L1.68447 9.49345L0.814453 8.75477L1.34036 8.2666ZM0.900871 8.75288L1.57812 9.32789L1.31025 8.37287L0.900871 8.75288Z" fill="#763D16"/>
<path d="M13.6117 16.3159L10.6211 15.6476L12.5032 14.6824L13.6117 16.3159Z" fill="#233447"/>
<path fill-rule="evenodd" clip-rule="evenodd" d="M12.5142 14.6453L13.6775 16.3596L10.5391 15.6583L12.5142 14.6453ZM10.706 15.637L13.5487 16.2722L12.495 14.7194L10.706 15.637Z" fill="#233447"/>
<path d="M6.64928 5.16665L1.06641 3.92721L3.3469 0.0546875L6.64928 5.16665Z" fill="#763D16"/>
<path fill-rule="evenodd" clip-rule="evenodd" d="M3.34562 0L6.71121 5.20981L1.02148 3.94665L3.34562 0ZM3.3479 0.109592L1.11106 3.908L6.58708 5.12371L3.3479 0.109592Z" fill="#763D16"/>
<path d="M15.8227 22.8044L16.1403 23.6611L11.002 22.4331L15.8227 22.8044Z" fill="#C0AD9E"/>
<path fill-rule="evenodd" clip-rule="evenodd" d="M10.9961 22.461L11.0051 22.4048L15.8444 22.7775L16.1869 23.7016L10.9961 22.461ZM11.3611 22.4895L16.0955 23.621L15.8029 22.8316L11.3611 22.4895Z" fill="#C0AD9E"/>
<path d="M10.904 17.8696L10.6211 15.6477L13.6117 16.316L10.904 17.8696Z" fill="#F6851B"/>
<path fill-rule="evenodd" clip-rule="evenodd" d="M10.5869 15.6108L13.6895 16.3041L10.8804 17.9158L10.5869 15.6108ZM10.6545 15.6845L10.9268 17.8232L13.5332 16.3278L10.6545 15.6845Z" fill="#F6851B"/>
<path d="M8.01172 13.4316L10.6213 15.6478L10.9042 17.8696L8.01172 13.4316Z" fill="#E4751F"/>
<path fill-rule="evenodd" clip-rule="evenodd" d="M7.98828 13.4471L8.03134 13.4099L10.6494 15.6332L10.9337 17.866L10.8808 17.885L7.98828 13.4471ZM8.1444 13.5812L10.8605 17.7486L10.5949 15.6622L8.1444 13.5812Z" fill="#E4751F"/>
<path d="M14.5067 15.2994L16.7929 15.168L19.4949 19.3375L14.5067 15.2994ZM8.0116 13.4316L10.9041 17.8696L7.34766 18.041L8.0116 13.4316Z" fill="#F6851B"/>
<path fill-rule="evenodd" clip-rule="evenodd" d="M7.99326 13.3518L10.9548 17.8957L7.31348 18.0711L7.99326 13.3518ZM8.02859 13.5114L7.3805 18.0107L10.852 17.8435L8.02859 13.5114ZM16.8074 15.1385L19.5185 19.3221L19.4759 19.3596L14.4304 15.2751L16.8074 15.1385ZM14.5815 15.3236L19.3718 19.2015L16.7771 15.1974L14.5815 15.3236Z" fill="#F6851B"/>
<path d="M14.5072 15.2993L17.3477 19.5774L13.6123 16.316L14.5072 15.2993Z" fill="#E4751F"/>
<path fill-rule="evenodd" clip-rule="evenodd" d="M14.509 15.2522L17.3704 19.5617L17.3272 19.5988L13.5703 16.3187L14.509 15.2522ZM13.6515 16.3134L17.2039 19.415L14.5026 15.3465L13.6515 16.3134Z" fill="#E4751F"/>
<path d="M13.6123 16.3159L17.3477 19.5773L16.9551 19.9257L13.6123 16.3159Z" fill="#F6851B"/>
<path fill-rule="evenodd" clip-rule="evenodd" d="M13.5908 16.3354L13.6312 16.2947L17.3909 19.5773L16.9529 19.966L13.5908 16.3354ZM14.0008 16.6935L16.9569 19.8857L17.3041 19.5776L14.0008 16.6935Z" fill="#F6851B"/>
<path d="M16.9548 19.9258L10.9043 17.8696L13.612 16.316L16.9548 19.9258ZM19.4951 19.3375L17.3474 19.5774L14.5069 15.2993L19.4951 19.3375Z" fill="#F6851B"/>
<path fill-rule="evenodd" clip-rule="evenodd" d="M14.4826 15.3151L14.525 15.2773L19.5662 19.3584L17.3329 19.6078L14.4826 15.3151ZM14.6344 15.4397L17.3616 19.5472L19.4237 19.3168L14.6344 15.4397ZM13.6175 16.2799L16.976 19.9066L16.9453 19.9529L10.835 17.8764L13.6175 16.2799ZM10.9733 17.863L16.8567 19.8624L13.6063 16.3524L10.9733 17.863Z" fill="#F6851B"/>
<path d="M20.0609 21.3479L19.1372 23.1814L16.1408 23.6611L20.0609 21.3479ZM16.1408 23.6611L15.8232 22.8044L16.5911 21.9705L16.1408 23.6611Z" fill="#C0AD9E"/>
<path fill-rule="evenodd" clip-rule="evenodd" d="M20.1316 21.2737L19.1573 23.2074L16.1648 23.6865L16.1462 23.7565L15.791 22.7981L16.5707 21.9514L16.6199 21.9779L16.1876 23.601L20.1316 21.2737ZM16.1372 23.5662L16.5341 22.0759L15.8573 22.811L16.1372 23.5662ZM16.2863 23.6092L19.1188 23.1557L19.9921 21.4225L16.2863 23.6092Z" fill="#C0AD9E"/>
<path d="M16.5919 21.9705L17.1577 21.7477L16.1416 23.6611L16.5919 21.9705ZM16.1416 23.6611L17.1577 21.7477L20.0617 21.3479L16.1416 23.6611Z" fill="#C0AD9E"/>
<path fill-rule="evenodd" clip-rule="evenodd" d="M17.1493 21.7199L17.138 21.7214L17.1361 21.7251L16.5667 21.9492L16.1135 23.6507L16.0674 23.7376L20.0755 21.3724L20.0567 21.3196L17.2084 21.7117L17.2186 21.6926L17.1493 21.7199ZM17.0948 21.8028L16.2333 23.4251L16.6151 21.9916L17.0948 21.8028ZM16.2138 23.5846L17.1754 21.7739L19.9235 21.3956L16.2138 23.5846Z" fill="#C0AD9E"/>
<path d="M19.494 19.3374L20.2042 19.7658L18.0449 20.0228L19.494 19.3374Z" fill="#161616"/>
<path fill-rule="evenodd" clip-rule="evenodd" d="M19.4964 19.3049L20.291 19.7843L18.0491 20.0511L18.0332 19.997L19.4964 19.3049ZM18.2164 19.9737L20.1188 19.7472L19.4931 19.3698L18.2164 19.9737Z" fill="#161616"/>
<path d="M18.0462 20.0228L17.3477 19.5773L19.4954 19.3374L18.0462 20.0228ZM17.798 20.3598L20.4249 20.0457L20.0612 21.3479L17.798 20.3598Z" fill="#161616"/>
<path fill-rule="evenodd" clip-rule="evenodd" d="M17.432 19.5967L18.049 19.9902L19.3289 19.3849L17.432 19.5967ZM19.4928 19.3091L19.5085 19.3632L18.0448 20.0555L17.2646 19.558L19.4928 19.3091ZM20.4648 20.0122L20.0808 21.3875L17.6908 20.344L20.4648 20.0122ZM17.9065 20.3757L20.0429 21.3085L20.3863 20.0792L17.9065 20.3757Z" fill="#161616"/>
<path d="M20.0597 21.348L17.1556 21.7478L17.7965 20.3599L20.0597 21.348ZM17.1556 21.7478L16.5898 21.9706L16.9536 19.9258L17.1556 21.7478ZM16.9536 19.9258L17.3462 19.5774L18.0447 20.0229L16.9536 19.9258ZM20.204 19.7659L20.4234 20.0458L17.7965 20.3599L20.204 19.7659Z" fill="#161616"/>
<path fill-rule="evenodd" clip-rule="evenodd" d="M17.3436 19.5415L18.0607 19.9988L18.0424 20.0513L16.9864 19.9573L17.1732 21.6416L17.7824 20.3223L17.7994 20.3297L20.2156 19.7336L20.4777 20.068L17.9046 20.3757L20.1645 21.3624L17.1634 21.7756L16.5527 22.016L16.92 19.9514L16.8852 19.9483L17.3436 19.5415ZM16.9472 20.1278L16.6275 21.9251L17.1248 21.7293L16.9472 20.1278ZM17.204 21.7123L17.8112 20.3973L19.9554 21.3335L17.204 21.7123ZM18.2545 20.2763L20.3696 20.0234L20.193 19.798L18.2545 20.2763ZM17.0225 19.9032L17.9309 19.984L17.3493 19.6131L17.0225 19.9032Z" fill="#161616"/>
<path d="M17.796 20.3599L18.0443 20.0229L20.2035 19.7659L17.796 20.3599ZM16.9531 19.9258L17.796 20.3599L17.1552 21.7478L16.9531 19.9258Z" fill="#161616"/>
<path fill-rule="evenodd" clip-rule="evenodd" d="M18.0606 20.0498L17.8666 20.3132L19.7482 19.8489L18.0606 20.0498ZM17.7877 20.3232L18.0288 19.9961L20.2005 19.7375L20.2109 19.7936L17.8169 20.3843L17.1383 21.854L16.9189 19.8758L17.7877 20.3232ZM17.7534 20.3699L16.9881 19.9758L17.1729 21.6417L17.7453 20.402L17.7263 20.4067L17.7534 20.3699Z" fill="#161616"/>
<path d="M18.0443 20.0229L17.796 20.3599L16.9531 19.9258L18.0443 20.0229Z" fill="#161616"/>
<path fill-rule="evenodd" clip-rule="evenodd" d="M16.9414 19.9512L16.9573 19.8975L18.0993 19.9991L17.8063 20.3967L16.9414 19.9512ZM17.0976 19.9673L17.7889 20.3233L17.9926 20.0469L17.0976 19.9673Z" fill="#161616"/>
</svg>
