<svg width="17" height="17" viewBox="0 0 17 17" fill="none" xmlns="http://www.w3.org/2000/svg">
<path d="M7.54967 11.5878L11.2468 8.81695C11.4605 8.65862 11.4605 8.34195 11.2468 8.18362L7.54967 5.41279C7.28842 5.21487 6.91634 5.40487 6.91634 5.72945V11.2711C6.91634 11.5957 7.28842 11.7857 7.54967 11.5878ZM8.49967 0.583618C4.12967 0.583618 0.583008 4.13028 0.583008 8.50028C0.583008 12.8703 4.12967 16.417 8.49967 16.417C12.8697 16.417 16.4163 12.8703 16.4163 8.50028C16.4163 4.13028 12.8697 0.583618 8.49967 0.583618ZM8.49967 14.8336C5.00842 14.8336 2.16634 11.9915 2.16634 8.50028C2.16634 5.00903 5.00842 2.16695 8.49967 2.16695C11.9909 2.16695 14.833 5.00903 14.833 8.50028C14.833 11.9915 11.9909 14.8336 8.49967 14.8336Z" fill="#212121"/>
</svg>
