<svg width="18" height="18" viewBox="0 0 18 18" fill="none" xmlns="http://www.w3.org/2000/svg">
<path d="M0 18.0002H8.13453V9.81836H0V18.0002ZM1.62675 11.4547H6.50765V16.3515H1.62675V11.4547Z" fill="#151D26"/>
<path d="M4.88176 13.0898H3.25488V14.7265H4.88176V13.0898Z" fill="#151D26"/>
<path d="M16.2694 11.4549H14.6426V9.81836H9.76172V18.0002H11.3887V13.0912H13.0153V14.7279H17.8961V9.81836H16.2694V11.4549Z" fill="#151D26"/>
<path d="M0 8.18223H8.13453V0H0V8.18223ZM1.62675 1.63623H6.50765V6.54559H1.62675V1.63623Z" fill="#151D26"/>
<path d="M4.88176 3.27344H3.25488V4.90994H4.88176V3.27344Z" fill="#151D26"/>
<path d="M9.76172 0V8.18223H17.8961V0H9.76172ZM16.2694 6.54559H11.3887V1.63623H16.2694V6.54559Z" fill="#151D26"/>
<path d="M14.6409 3.27344H13.0137V4.90994H14.6409V3.27344Z" fill="#151D26"/>
</svg>
