<svg width="31" height="31" viewBox="0 0 31 31" fill="none" xmlns="http://www.w3.org/2000/svg">
<path d="M3.875 14.2083H14.2083V3.875H3.875V14.2083ZM6.45833 6.45833H11.625V11.625H6.45833V6.45833Z" fill="#545E66"/>
<path d="M3.875 27.1248H14.2083V16.7915H3.875V27.1248ZM6.45833 19.3748H11.625V24.5415H6.45833V19.3748Z" fill="#545E66"/>
<path d="M16.792 3.875V14.2083H27.1253V3.875H16.792ZM24.542 11.625H19.3753V6.45833H24.542V11.625Z" fill="#545E66"/>
<path d="M27.1253 24.5415H24.542V27.1248H27.1253V24.5415Z" fill="#545E66"/>
<path d="M19.3753 16.7915H16.792V19.3748H19.3753V16.7915Z" fill="#545E66"/>
<path d="M21.9583 19.375H19.375V21.9583H21.9583V19.375Z" fill="#545E66"/>
<path d="M19.3753 21.9585H16.792V24.5418H19.3753V21.9585Z" fill="#545E66"/>
<path d="M21.9583 24.5415H19.375V27.1248H21.9583V24.5415Z" fill="#545E66"/>
<path d="M24.5413 21.9585H21.958V24.5418H24.5413V21.9585Z" fill="#545E66"/>
<path d="M24.5413 16.7915H21.958V19.3748H24.5413V16.7915Z" fill="#545E66"/>
<path d="M27.1253 19.375H24.542V21.9583H27.1253V19.375Z" fill="#545E66"/>
</svg>
