<svg width="28" height="19" viewBox="0 0 28 19" fill="none" xmlns="http://www.w3.org/2000/svg">
<path d="M26.5165 2.97527C26.2033 1.80952 25.2811 0.887363 24.1154 0.574176C22.0101 0 13.5366 0 13.5366 0C13.5366 0 5.06319 0.0173993 2.95788 0.591575C1.79212 0.904762 0.869963 1.82692 0.556777 2.99267C-4.14831e-08 5.09799 0 9.5 0 9.5C0 9.5 -4.14831e-08 13.902 0.574176 16.0247C0.887363 17.1905 1.80952 18.1126 2.97528 18.4258C5.08059 19 13.554 19 13.554 19C13.554 19 22.0275 19 24.1328 18.4258C25.2985 18.1126 26.2207 17.1905 26.5339 16.0247C27.1081 13.9194 27.1081 9.5 27.1081 9.5C27.1081 9.5 27.0907 5.09799 26.5165 2.97527Z" fill="#151D26"/>
<path d="M10.8398 13.5716L17.8691 9.50014L10.8398 5.42871V13.5716Z" fill="white"/>
</svg>
