<svg width="21" height="18" viewBox="0 0 21 18" fill="none" xmlns="http://www.w3.org/2000/svg">
<path d="M0.371101 8.62909L5.21028 10.4069L7.08361 16.3365C7.11121 16.4243 7.16031 16.504 7.22658 16.5688C7.29285 16.6335 7.37427 16.6811 7.46366 16.7076C7.55305 16.7341 7.64768 16.7385 7.73922 16.7205C7.83076 16.7025 7.9164 16.6626 7.98861 16.6044L10.6878 14.4403C10.8254 14.3308 10.9959 14.269 11.1728 14.2645C11.3498 14.26 11.5233 14.3131 11.6665 14.4155L16.5319 17.8927C16.609 17.9479 16.699 17.9832 16.7935 17.9953C16.8881 18.0074 16.9842 17.996 17.0731 17.9621C17.1621 17.9282 17.2409 17.8728 17.3025 17.8011C17.364 17.7294 17.4063 17.6437 17.4255 17.5517L20.9881 0.675712C21.0089 0.576891 21.0023 0.474369 20.969 0.37893C20.9356 0.28349 20.8768 0.198661 20.7986 0.133365C20.7204 0.0680693 20.6258 0.0247194 20.5247 0.00787584C20.4236 -0.00896771 20.3198 0.00131808 20.2241 0.0376498L0.365164 7.57897C0.257162 7.61998 0.164391 7.69237 0.0991704 7.78651C0.0339493 7.88065 -0.000635451 7.9921 8.84093e-06 8.10605C0.000653133 8.22 0.036496 8.33106 0.102778 8.42448C0.169059 8.5179 0.262643 8.58926 0.371101 8.62909ZM6.78178 9.46052L16.239 3.72672C16.2738 3.70646 16.3149 3.69949 16.3546 3.70714C16.3943 3.7148 16.4297 3.73655 16.4541 3.76825C16.4786 3.79995 16.4903 3.83939 16.4871 3.87906C16.484 3.91874 16.4661 3.95587 16.4369 3.98341L8.63284 11.1258C8.35888 11.3764 8.18159 11.7128 8.13111 12.0776L7.86738 14.018C7.86001 14.0729 7.83364 14.1236 7.79272 14.1616C7.7518 14.1996 7.69883 14.2225 7.64274 14.2265C7.58665 14.2305 7.53088 14.2153 7.48482 14.1836C7.43876 14.1518 7.40524 14.1054 7.3899 14.0521L6.36714 10.515C6.31012 10.3188 6.31972 10.1097 6.39447 9.91938C6.46922 9.72905 6.60504 9.56794 6.78129 9.46052H6.78178Z" fill="#151D26"/>
</svg>
