<svg width="30" height="25" viewBox="0 0 30 25" fill="none" xmlns="http://www.w3.org/2000/svg">
<path d="M0.530145 11.9849L7.44326 14.454L10.1194 22.6896C10.1589 22.8115 10.229 22.9223 10.3237 23.0122C10.4184 23.102 10.5347 23.1683 10.6624 23.205C10.7901 23.2418 10.9253 23.2479 11.056 23.2229C11.1868 23.1979 11.3091 23.1425 11.4123 23.0617L15.2682 20.056C15.4649 19.9039 15.7084 19.818 15.9612 19.8118C16.214 19.8056 16.4618 19.8793 16.6664 20.0215L23.617 24.851C23.7272 24.9276 23.8557 24.9766 23.9908 24.9935C24.1258 25.0103 24.2632 24.9944 24.3902 24.9473C24.5172 24.9002 24.6299 24.8234 24.7178 24.7238C24.8057 24.6242 24.8662 24.5051 24.8936 24.3774L29.983 0.938489C30.0128 0.801237 30.0033 0.658846 29.9557 0.526291C29.908 0.393737 29.824 0.275918 29.7123 0.185229C29.6006 0.0945407 29.4654 0.0343325 29.321 0.0109387C29.1766 -0.0124551 29.0283 0.00183067 28.8916 0.0522914L0.521662 10.5263C0.367375 10.5833 0.234845 10.6838 0.141672 10.8146C0.0484991 10.9454 -0.000907787 11.1001 1.26299e-05 11.2584C0.000933047 11.4167 0.0521372 11.5709 0.146825 11.7007C0.241513 11.8304 0.375204 11.9295 0.530145 11.9849ZM9.68826 13.1396L23.1985 5.17601C23.2482 5.14785 23.307 5.13817 23.3637 5.14881C23.4204 5.15944 23.471 5.18965 23.5059 5.23368C23.5408 5.2777 23.5576 5.33248 23.5531 5.38759C23.5485 5.44269 23.523 5.49427 23.4813 5.53252L12.3326 15.4525C11.9413 15.8006 11.688 16.2677 11.6159 16.7744L11.2391 19.4695C11.2286 19.5457 11.1909 19.6161 11.1325 19.6689C11.074 19.7216 10.9983 19.7534 10.9182 19.759C10.8381 19.7646 10.7584 19.7435 10.6926 19.6994C10.6268 19.6553 10.5789 19.5908 10.557 19.5169L9.09591 14.6042C9.01446 14.3317 9.02817 14.0413 9.13496 13.7769C9.24174 13.5126 9.43577 13.2888 9.68755 13.1396H9.68826Z" fill="#545E66"/>
</svg>
