<svg width="24" height="22" viewBox="0 0 24 22" fill="none" xmlns="http://www.w3.org/2000/svg">
<path d="M14.4394 7.38751V4.46021H21.1652V0H2.85063V4.46021H9.57722V7.38515C4.11046 7.63506 0 8.71263 0 10.0035C0 11.2944 4.11243 12.372 9.57722 12.6234V22H14.441V12.6226C19.8978 12.372 24 11.2952 24 10.0055C24 8.71578 19.8978 7.639 14.441 7.3883L14.4394 7.38751ZM14.441 11.8284V11.8261C14.3038 11.8347 13.5987 11.8769 12.0289 11.8769C10.7738 11.8769 9.8908 11.8414 9.5796 11.8253V11.8292C4.74986 11.6163 1.14476 10.7792 1.14476 9.7776C1.14476 8.77599 4.75026 7.94007 9.5796 7.72676V10.9953C9.89594 11.0169 10.8007 11.0701 12.0494 11.0701C13.5493 11.0701 14.3034 11.0079 14.4418 10.9953V7.72676C19.262 7.94047 22.8588 8.77835 22.8588 9.77642C22.8588 10.7745 19.2604 11.6128 14.4418 11.8265" fill="#151D26"/>
</svg>
