<svg width="22" height="29" viewBox="0 0 22 29" fill="none" xmlns="http://www.w3.org/2000/svg">
<path d="M11.0087 28.5885C8.39643 28.5885 6.25061 27.7955 4.66457 26.2561C2.6587 24.3435 2.00562 21.3114 3.03188 18.979C3.9182 16.9731 5.78413 15.7602 7.13693 14.8739L12.5015 11.422C14.1342 10.349 15.6735 9.27614 16.0001 7.87669C16.3266 6.66384 15.6735 5.21774 14.4607 4.37808C12.6881 3.16522 10.6822 3.39846 9.93582 3.58506C7.60341 4.09819 6.29726 5.82417 5.83078 6.52389L2.98524 4.65797C3.68496 3.58506 5.64418 1.01941 9.18945 0.226387C10.4023 -0.0535025 13.5277 -0.426688 16.3733 1.53254C18.7057 3.16522 19.8719 6.05741 19.2188 8.62306C18.5657 11.1887 16.4199 12.7748 14.2741 14.1742L8.90956 17.6262C7.55676 18.5125 6.48385 19.2589 6.06402 20.2385C5.59754 21.3114 5.97072 22.8041 6.95033 23.7837C7.97659 24.7633 9.32939 25.2298 11.1953 25.1832C14.1808 25.1365 16.28 23.1307 17.0263 22.291L19.4987 24.5301C18.4258 25.6963 15.5336 28.4485 11.242 28.5418C11.1953 28.5885 11.102 28.5885 11.0087 28.5885Z" fill="#545E66"/>
<path d="M21.1316 9.46289H0V12.9149H21.1316V9.46289Z" fill="#545E66"/>
<path d="M21.1316 16.1802H0V19.6321H21.1316V16.1802Z" fill="#545E66"/>
</svg>
